<svg width="121" height="24" viewBox="0 0 121 24" fill="none" xmlns="http://www.w3.org/2000/svg">
<path d="M0.430658 0.839999H4.31766V14.594H10.5447V18H0.430658V0.839999ZM17.7398 18.312C16.5698 18.312 15.5298 18.0737 14.6198 17.597C13.7184 17.1117 13.0078 16.4487 12.4878 15.608C11.9764 14.7587 11.7208 13.788 11.7208 12.696C11.7208 11.604 11.9764 10.6333 12.4878 9.784C13.0078 8.926 13.7184 8.25 14.6198 7.756C15.5298 7.262 16.5698 7.015 17.7398 7.015C18.9098 7.015 19.9411 7.262 20.8338 7.756C21.7264 8.25 22.4241 8.926 22.9268 9.784C23.4294 10.6333 23.6808 11.604 23.6808 12.696C23.6808 13.788 23.4294 14.7587 22.9268 15.608C22.4241 16.4487 21.7264 17.1117 20.8338 17.597C19.9411 18.0737 18.9098 18.312 17.7398 18.312ZM17.7398 15.062C18.1904 15.062 18.5804 14.9623 18.9098 14.763C19.2391 14.5637 19.4948 14.282 19.6768 13.918C19.8588 13.554 19.9498 13.1423 19.9498 12.683C19.9498 12.215 19.8588 11.799 19.6768 11.435C19.4948 11.071 19.2391 10.785 18.9098 10.577C18.5804 10.369 18.1904 10.265 17.7398 10.265C17.2891 10.265 16.8948 10.369 16.5568 10.577C16.2274 10.785 15.9674 11.071 15.7768 11.435C15.5948 11.799 15.5038 12.215 15.5038 12.683C15.5038 13.1423 15.5948 13.554 15.7768 13.918C15.9674 14.282 16.2274 14.5637 16.5568 14.763C16.8948 14.9623 17.2891 15.062 17.7398 15.062ZM30.7424 15.205C31.2364 15.205 31.6437 15.1227 31.9644 14.958C32.2851 14.7847 32.5017 14.646 32.6144 14.542L34.4214 17.22C34.2827 17.3327 34.0444 17.48 33.7064 17.662C33.3684 17.8353 32.9437 17.987 32.4324 18.117C31.9297 18.247 31.3534 18.312 30.7034 18.312C29.4814 18.312 28.4067 18.0823 27.4794 17.623C26.5521 17.155 25.8284 16.4963 25.3084 15.647C24.7971 14.7977 24.5414 13.801 24.5414 12.657C24.5414 11.5043 24.7971 10.5077 25.3084 9.667C25.8284 8.82633 26.5521 8.17633 27.4794 7.717C28.4067 7.249 29.4814 7.015 30.7034 7.015C31.3447 7.015 31.9167 7.08433 32.4194 7.223C32.9307 7.353 33.3597 7.50467 33.7064 7.678C34.0531 7.84267 34.2957 7.98567 34.4344 8.107L32.5884 10.811C32.5277 10.7503 32.4151 10.6637 32.2504 10.551C32.0944 10.4383 31.8907 10.3387 31.6394 10.252C31.3881 10.1653 31.0891 10.122 30.7424 10.122C30.3177 10.122 29.9191 10.2303 29.5464 10.447C29.1824 10.6637 28.8877 10.9627 28.6624 11.344C28.4371 11.7253 28.3244 12.163 28.3244 12.657C28.3244 13.151 28.4371 13.593 28.6624 13.983C28.8877 14.3643 29.1824 14.6633 29.5464 14.88C29.9191 15.0967 30.3177 15.205 30.7424 15.205ZM43.5287 18V16.271C43.4507 16.4443 43.2514 16.6957 42.9307 17.025C42.6187 17.3543 42.2027 17.6533 41.6827 17.922C41.1627 18.182 40.556 18.312 39.8627 18.312C38.8227 18.312 37.9127 18.0607 37.1327 17.558C36.3527 17.0467 35.746 16.3663 35.3127 15.517C34.8794 14.659 34.6627 13.71 34.6627 12.67C34.6627 11.63 34.8794 10.6853 35.3127 9.836C35.746 8.978 36.3527 8.29333 37.1327 7.782C37.9127 7.27067 38.8227 7.015 39.8627 7.015C40.53 7.015 41.115 7.12333 41.6177 7.34C42.1204 7.548 42.5277 7.79933 42.8397 8.094C43.1517 8.38 43.3684 8.64433 43.4897 8.887V7.327H47.4157V18H43.5287ZM38.5367 12.67C38.5367 13.1553 38.6494 13.593 38.8747 13.983C39.1 14.3643 39.399 14.6633 39.7717 14.88C40.153 15.0967 40.5734 15.205 41.0327 15.205C41.5094 15.205 41.9297 15.0967 42.2937 14.88C42.6577 14.6633 42.9437 14.3643 43.1517 13.983C43.3684 13.593 43.4767 13.1553 43.4767 12.67C43.4767 12.1847 43.3684 11.7513 43.1517 11.37C42.9437 10.98 42.6577 10.6767 42.2937 10.46C41.9297 10.2347 41.5094 10.122 41.0327 10.122C40.5734 10.122 40.153 10.2347 39.7717 10.46C39.399 10.6767 39.1 10.98 38.8747 11.37C38.6494 11.7513 38.5367 12.1847 38.5367 12.67ZM53.0955 18H49.1305V0.111999H53.0955V18ZM54.9935 18V7.327H58.9455V18H54.9935ZM57.0215 5.13C56.3975 5.13 55.8688 4.91333 55.4355 4.48C55.0022 4.038 54.7855 3.51367 54.7855 2.907C54.7855 2.30033 55.0022 1.776 55.4355 1.334C55.8775 0.883332 56.4062 0.657999 57.0215 0.657999C57.4288 0.657999 57.8015 0.761999 58.1395 0.969999C58.4775 1.16933 58.7505 1.438 58.9585 1.776C59.1665 2.114 59.2705 2.491 59.2705 2.907C59.2705 3.51367 59.0495 4.038 58.6075 4.48C58.1655 4.91333 57.6368 5.13 57.0215 5.13ZM60.6022 7.327H71.1712L65.8412 15.244H70.7552V18H59.7442L65.0612 10.07H60.6022V7.327ZM80.0689 18V16.271C79.9909 16.4443 79.7915 16.6957 79.4709 17.025C79.1589 17.3543 78.7429 17.6533 78.2229 17.922C77.7029 18.182 77.0962 18.312 76.4029 18.312C75.3629 18.312 74.4529 18.0607 73.6729 17.558C72.8929 17.0467 72.2862 16.3663 71.8529 15.517C71.4195 14.659 71.2029 13.71 71.2029 12.67C71.2029 11.63 71.4195 10.6853 71.8529 9.836C72.2862 8.978 72.8929 8.29333 73.6729 7.782C74.4529 7.27067 75.3629 7.015 76.4029 7.015C77.0702 7.015 77.6552 7.12333 78.1579 7.34C78.6605 7.548 79.0679 7.79933 79.3799 8.094C79.6919 8.38 79.9085 8.64433 80.0299 8.887V7.327H83.9559V18H80.0689ZM75.0769 12.67C75.0769 13.1553 75.1895 13.593 75.4149 13.983C75.6402 14.3643 75.9392 14.6633 76.3119 14.88C76.6932 15.0967 77.1135 15.205 77.5729 15.205C78.0495 15.205 78.4699 15.0967 78.8339 14.88C79.1979 14.6633 79.4839 14.3643 79.6919 13.983C79.9085 13.593 80.0169 13.1553 80.0169 12.67C80.0169 12.1847 79.9085 11.7513 79.6919 11.37C79.4839 10.98 79.1979 10.6767 78.8339 10.46C78.4699 10.2347 78.0495 10.122 77.5729 10.122C77.1135 10.122 76.6932 10.2347 76.3119 10.46C75.9392 10.6767 75.6402 10.98 75.4149 11.37C75.1895 11.7513 75.0769 12.1847 75.0769 12.67ZM91.4686 15.205C91.9626 15.205 92.37 15.1227 92.6906 14.958C93.0113 14.7847 93.228 14.646 93.3406 14.542L95.1476 17.22C95.009 17.3327 94.7706 17.48 94.4326 17.662C94.0946 17.8353 93.67 17.987 93.1586 18.117C92.656 18.247 92.0796 18.312 91.4296 18.312C90.2076 18.312 89.133 18.0823 88.2056 17.623C87.2783 17.155 86.5546 16.4963 86.0346 15.647C85.5233 14.7977 85.2676 13.801 85.2676 12.657C85.2676 11.5043 85.5233 10.5077 86.0346 9.667C86.5546 8.82633 87.2783 8.17633 88.2056 7.717C89.133 7.249 90.2076 7.015 91.4296 7.015C92.071 7.015 92.643 7.08433 93.1456 7.223C93.657 7.353 94.086 7.50467 94.4326 7.678C94.7793 7.84267 95.022 7.98567 95.1606 8.107L93.3146 10.811C93.254 10.7503 93.1413 10.6637 92.9766 10.551C92.8206 10.4383 92.617 10.3387 92.3656 10.252C92.1143 10.1653 91.8153 10.122 91.4686 10.122C91.044 10.122 90.6453 10.2303 90.2726 10.447C89.9086 10.6637 89.614 10.9627 89.3886 11.344C89.1633 11.7253 89.0506 12.163 89.0506 12.657C89.0506 13.151 89.1633 13.593 89.3886 13.983C89.614 14.3643 89.9086 14.6633 90.2726 14.88C90.6453 15.0967 91.044 15.205 91.4686 15.205ZM90.0126 23.629C89.1893 23.629 88.4916 23.5033 87.9196 23.252C87.3563 23.0007 86.9663 22.758 86.7496 22.524L88.0496 21.055C88.2056 21.2283 88.431 21.406 88.7256 21.588C89.029 21.77 89.3496 21.861 89.6876 21.861C89.9996 21.861 90.2466 21.7873 90.4286 21.64C90.6193 21.4927 90.7146 21.2977 90.7146 21.055C90.7146 20.7603 90.5976 20.5437 90.3636 20.405C90.1296 20.2663 89.8523 20.197 89.5316 20.197C89.263 20.197 89.0333 20.2143 88.8426 20.249C88.6606 20.2923 88.5393 20.3357 88.4786 20.379L88.2836 20.223L89.2846 17.454L90.6626 17.922L90.1946 19.092C90.68 19.0573 91.1393 19.1137 91.5726 19.261C92.006 19.4083 92.357 19.6337 92.6256 19.937C92.903 20.2403 93.0416 20.6173 93.0416 21.068C93.0416 21.6053 92.903 22.0647 92.6256 22.446C92.3483 22.8273 91.9756 23.1177 91.5076 23.317C91.0483 23.525 90.55 23.629 90.0126 23.629ZM103.798 18V16.271C103.72 16.4443 103.521 16.6957 103.2 17.025C102.888 17.3543 102.472 17.6533 101.952 17.922C101.432 18.182 100.825 18.312 100.132 18.312C99.0919 18.312 98.1819 18.0607 97.4019 17.558C96.6219 17.0467 96.0153 16.3663 95.5819 15.517C95.1486 14.659 94.9319 13.71 94.9319 12.67C94.9319 11.63 95.1486 10.6853 95.5819 9.836C96.0153 8.978 96.6219 8.29333 97.4019 7.782C98.1819 7.27067 99.0919 7.015 100.132 7.015C100.799 7.015 101.384 7.12333 101.887 7.34C102.39 7.548 102.797 7.79933 103.109 8.094C103.421 8.38 103.638 8.64433 103.759 8.887V7.327H107.685V18H103.798ZM98.8059 12.67C98.8059 13.1553 98.9186 13.593 99.1439 13.983C99.3693 14.3643 99.6683 14.6633 100.041 14.88C100.422 15.0967 100.843 15.205 101.302 15.205C101.779 15.205 102.199 15.0967 102.563 14.88C102.927 14.6633 103.213 14.3643 103.421 13.983C103.638 13.593 103.746 13.1553 103.746 12.67C103.746 12.1847 103.638 11.7513 103.421 11.37C103.213 10.98 102.927 10.6767 102.563 10.46C102.199 10.2347 101.779 10.122 101.302 10.122C100.843 10.122 100.422 10.2347 100.041 10.46C99.6683 10.6767 99.3693 10.98 99.1439 11.37C98.9186 11.7513 98.8059 12.1847 98.8059 12.67ZM96.8819 5.26C96.9686 4.74867 97.1289 4.22 97.3629 3.674C97.5969 3.128 97.9089 2.66433 98.2989 2.283C98.6976 1.90167 99.1699 1.711 99.7159 1.711C100.262 1.711 100.743 1.79333 101.159 1.958C101.575 2.114 101.965 2.27433 102.329 2.439C102.693 2.595 103.066 2.673 103.447 2.673C103.698 2.673 103.902 2.56467 104.058 2.348C104.223 2.12267 104.335 1.91033 104.396 1.711H106.489C106.411 2.22233 106.251 2.751 106.008 3.297C105.774 3.843 105.462 4.30667 105.072 4.688C104.682 5.06933 104.21 5.26 103.655 5.26C103.118 5.26 102.641 5.182 102.225 5.026C101.809 4.86133 101.415 4.701 101.042 4.545C100.678 4.389 100.305 4.311 99.9239 4.311C99.6813 4.311 99.4776 4.41933 99.3129 4.636C99.1569 4.85267 99.0486 5.06067 98.9879 5.26H96.8819ZM114.847 18.312C113.677 18.312 112.637 18.0737 111.727 17.597C110.825 17.1117 110.115 16.4487 109.595 15.608C109.083 14.7587 108.828 13.788 108.828 12.696C108.828 11.604 109.083 10.6333 109.595 9.784C110.115 8.926 110.825 8.25 111.727 7.756C112.637 7.262 113.677 7.015 114.847 7.015C116.017 7.015 117.048 7.262 117.941 7.756C118.833 8.25 119.531 8.926 120.034 9.784C120.536 10.6333 120.788 11.604 120.788 12.696C120.788 13.788 120.536 14.7587 120.034 15.608C119.531 16.4487 118.833 17.1117 117.941 17.597C117.048 18.0737 116.017 18.312 114.847 18.312ZM114.847 15.062C115.297 15.062 115.687 14.9623 116.017 14.763C116.346 14.5637 116.602 14.282 116.784 13.918C116.966 13.554 117.057 13.1423 117.057 12.683C117.057 12.215 116.966 11.799 116.784 11.435C116.602 11.071 116.346 10.785 116.017 10.577C115.687 10.369 115.297 10.265 114.847 10.265C114.396 10.265 114.002 10.369 113.664 10.577C113.334 10.785 113.074 11.071 112.884 11.435C112.702 11.799 112.611 12.215 112.611 12.683C112.611 13.1423 112.702 13.554 112.884 13.918C113.074 14.282 113.334 14.5637 113.664 14.763C114.002 14.9623 114.396 15.062 114.847 15.062Z" fill="white"/>
</svg>
