<svg width="254" height="34" viewBox="0 0 254 34" fill="none" xmlns="http://www.w3.org/2000/svg">
<path d="M22.4227 0.783601H26.6892C27.3494 0.783601 27.9479 0.922423 28.4847 1.20007C29.0276 1.47154 29.4595 1.87259 29.7804 2.4032C30.1074 2.92764 30.2709 3.56931 30.2709 4.32821C30.2709 5.08094 30.1197 5.70409 29.8174 6.19769C29.5212 6.69128 29.1634 7.06456 28.7438 7.31752C28.3243 7.56432 27.9356 7.70006 27.5777 7.72474L30.604 13H28.8086L25.9766 7.83579H24.0053V13H22.4227V0.783601ZM24.0053 6.66043H26.1339C26.862 6.66043 27.4636 6.47842 27.9386 6.11439C28.4137 5.75037 28.6513 5.16731 28.6513 4.36523C28.6513 3.56314 28.4137 2.98625 27.9386 2.63457C27.4697 2.28289 26.8712 2.10704 26.1432 2.10704H24.0053V6.66043ZM33.0971 9.52943C33.1032 9.986 33.2019 10.4025 33.3932 10.7788C33.5845 11.1552 33.8683 11.4544 34.2447 11.6766C34.6272 11.8987 35.0961 12.0097 35.6514 12.0097C36.1203 12.0097 36.5183 11.9419 36.8453 11.8061C37.1784 11.6642 37.4499 11.4976 37.6597 11.3064C37.8695 11.1089 38.0206 10.9331 38.1132 10.7788L38.8999 11.7506C38.6962 12.0468 38.4464 12.3059 38.1502 12.528C37.8602 12.7501 37.5055 12.9198 37.0859 13.037C36.6663 13.1604 36.1542 13.2221 35.5496 13.2221C34.7352 13.2221 34.0287 13.0494 33.4302 12.7038C32.8379 12.3522 32.3814 11.8678 32.0605 11.2508C31.7397 10.6277 31.5793 9.91505 31.5793 9.11296C31.5793 8.37258 31.7304 7.70623 32.0328 7.11392C32.3351 6.51544 32.7731 6.04344 33.3469 5.69792C33.9269 5.35241 34.6241 5.17965 35.4385 5.17965C36.1851 5.17965 36.8329 5.33699 37.3821 5.65165C37.9373 5.96015 38.3662 6.39821 38.6685 6.96584C38.977 7.53347 39.1312 8.21216 39.1312 9.00191C39.1312 9.05126 39.1281 9.14073 39.122 9.2703C39.1158 9.39369 39.1096 9.48007 39.1035 9.52943H33.0971ZM37.5949 8.31705C37.5887 8.06408 37.5147 7.78644 37.3728 7.48411C37.2371 7.18179 37.0149 6.92265 36.7065 6.7067C36.398 6.49076 35.9815 6.38278 35.457 6.38278C34.9141 6.38278 34.476 6.48767 34.1429 6.69745C33.8159 6.90723 33.5752 7.16328 33.421 7.4656C33.2667 7.76176 33.1773 8.04557 33.1526 8.31705H37.5949ZM39.5691 5.40177H41.1239V3.24539C41.1239 2.47415 41.2566 1.85408 41.5219 1.38517C41.7933 0.916253 42.1358 0.576909 42.5491 0.367133C42.9687 0.151186 43.3975 0.0432126 43.8356 0.0432126C44.3662 0.0432126 44.7734 0.117252 45.0572 0.265329C45.3472 0.413406 45.52 0.512125 45.5755 0.561484L44.9276 1.79238C44.8968 1.75536 44.8012 1.68749 44.6407 1.58877C44.4803 1.49005 44.2613 1.44069 43.9836 1.44069C43.78 1.44069 43.5826 1.49005 43.3913 1.58877C43.2001 1.68749 43.0397 1.87876 42.9101 2.16257C42.7805 2.44639 42.7157 2.86903 42.7157 3.43049V5.40177H44.8814V6.78074H42.7157V13H41.1239V6.78074H39.5691V5.40177ZM46.7906 9.52943C46.7968 9.986 46.8955 10.4025 47.0868 10.7788C47.278 11.1552 47.5619 11.4544 47.9382 11.6766C48.3208 11.8987 48.7897 12.0097 49.345 12.0097C49.8139 12.0097 50.2118 11.9419 50.5388 11.8061C50.872 11.6642 51.1435 11.4976 51.3533 11.3064C51.563 11.1089 51.7142 10.9331 51.8067 10.7788L52.5934 11.7506C52.3898 12.0468 52.1399 12.3059 51.8438 12.528C51.5538 12.7501 51.199 12.9198 50.7795 13.037C50.3599 13.1604 49.8478 13.2221 49.2432 13.2221C48.4287 13.2221 47.7223 13.0494 47.1238 12.7038C46.5315 12.3522 46.0749 11.8678 45.7541 11.2508C45.4332 10.6277 45.2728 9.91505 45.2728 9.11296C45.2728 8.37258 45.424 7.70623 45.7263 7.11392C46.0286 6.51544 46.4667 6.04344 47.0405 5.69792C47.6205 5.35241 48.3177 5.17965 49.1321 5.17965C49.8787 5.17965 50.5265 5.33699 51.0756 5.65165C51.6309 5.96015 52.0597 6.39821 52.362 6.96584C52.6705 7.53347 52.8248 8.21216 52.8248 9.00191C52.8248 9.05126 52.8217 9.14073 52.8155 9.2703C52.8094 9.39369 52.8032 9.48007 52.797 9.52943H46.7906ZM51.2885 8.31705C51.2823 8.06408 51.2083 7.78644 51.0664 7.48411C50.9306 7.18179 50.7085 6.92265 50.4 6.7067C50.0915 6.49076 49.675 6.38278 49.1506 6.38278C48.6077 6.38278 48.1696 6.48767 47.8364 6.69745C47.5094 6.90723 47.2688 7.16328 47.1145 7.4656C46.9603 7.76176 46.8708 8.04557 46.8461 8.31705H51.2885ZM55.6302 13H54.0291V5.40177H55.6302V6.71596H55.5839C55.6147 6.55554 55.7289 6.35502 55.9263 6.11439C56.1237 5.87377 56.3952 5.65782 56.7407 5.46655C57.0863 5.27529 57.4996 5.17965 57.9809 5.17965C58.3326 5.17965 58.6411 5.22901 58.9064 5.32773C59.1778 5.42028 59.3691 5.51283 59.4802 5.60538L58.8231 6.93807C58.7367 6.8517 58.5855 6.76532 58.3696 6.67894C58.1536 6.58639 57.8853 6.54012 57.5644 6.54012C57.1572 6.54012 56.8086 6.6666 56.5186 6.91957C56.2286 7.17253 56.0065 7.47794 55.8523 7.83579C55.7042 8.18748 55.6302 8.51448 55.6302 8.81681V13ZM60.8095 9.52943C60.8157 9.986 60.9144 10.4025 61.1057 10.7788C61.297 11.1552 61.5808 11.4544 61.9571 11.6766C62.3397 11.8987 62.8086 12.0097 63.3639 12.0097C63.8328 12.0097 64.2308 11.9419 64.5578 11.8061C64.8909 11.6642 65.1624 11.4976 65.3722 11.3064C65.582 11.1089 65.7331 10.9331 65.8257 10.7788L66.6123 11.7506C66.4087 12.0468 66.1588 12.3059 65.8627 12.528C65.5727 12.7501 65.2179 12.9198 64.7984 13.037C64.3788 13.1604 63.8667 13.2221 63.2621 13.2221C62.4477 13.2221 61.7412 13.0494 61.1427 12.7038C60.5504 12.3522 60.0938 11.8678 59.773 11.2508C59.4522 10.6277 59.2917 9.91505 59.2917 9.11296C59.2917 8.37258 59.4429 7.70623 59.7452 7.11392C60.0476 6.51544 60.4856 6.04344 61.0594 5.69792C61.6394 5.35241 62.3366 5.17965 63.151 5.17965C63.8976 5.17965 64.5454 5.33699 65.0945 5.65165C65.6498 5.96015 66.0786 6.39821 66.381 6.96584C66.6895 7.53347 66.8437 8.21216 66.8437 9.00191C66.8437 9.05126 66.8406 9.14073 66.8344 9.2703C66.8283 9.39369 66.8221 9.48007 66.8159 9.52943H60.8095ZM65.3074 8.31705C65.3012 8.06408 65.2272 7.78644 65.0853 7.48411C64.9495 7.18179 64.7274 6.92265 64.4189 6.7067C64.1104 6.49076 63.694 6.38278 63.1695 6.38278C62.6266 6.38278 62.1885 6.48767 61.8553 6.69745C61.5283 6.90723 61.2877 7.16328 61.1335 7.4656C60.9792 7.76176 60.8898 8.04557 60.8651 8.31705H65.3074ZM65.2334 4.53181L63.1603 3.01402L61.0964 4.52256L60.3931 3.58782L63.1603 1.56101L65.9367 3.58782L65.2334 4.53181ZM72.3326 5.17965C72.8323 5.17965 73.3167 5.28454 73.7856 5.49432C74.2607 5.70409 74.6494 6.03727 74.9517 6.49384C75.2602 6.94424 75.4144 7.53347 75.4144 8.26152V13H73.7856V8.57618C73.7856 7.82346 73.6097 7.27742 73.258 6.93807C72.9064 6.59256 72.4529 6.4198 71.8976 6.4198C71.5336 6.4198 71.1819 6.52469 70.8425 6.73447C70.5094 6.93807 70.2348 7.22189 70.0188 7.58591C69.8029 7.94377 69.6949 8.35098 69.6949 8.80755V13H68.0846V5.40177H69.6949V6.75298C69.7505 6.5432 69.9016 6.31491 70.1484 6.06812C70.3952 5.82132 70.7099 5.61155 71.0924 5.43879C71.4749 5.26603 71.8883 5.17965 72.3326 5.17965ZM80.5465 11.8894C81.0278 11.8894 81.4165 11.8123 81.7126 11.658C82.0088 11.5038 82.1939 11.3927 82.2679 11.3249L83.0546 12.4817C82.9929 12.5373 82.8448 12.6267 82.6103 12.7501C82.3821 12.8673 82.0859 12.9753 81.7219 13.074C81.364 13.1728 80.9568 13.2221 80.5002 13.2221C79.803 13.2221 79.1552 13.0679 78.5567 12.7594C77.9582 12.4447 77.4739 11.9881 77.1037 11.3897C76.7397 10.7912 76.5577 10.06 76.5577 9.19626C76.5577 8.3263 76.7397 7.59517 77.1037 7.00286C77.4739 6.40438 77.9582 5.95089 78.5567 5.6424C79.1552 5.3339 79.803 5.17965 80.5002 5.17965C80.9506 5.17965 81.3517 5.23518 81.7034 5.34624C82.0551 5.45113 82.345 5.56836 82.5733 5.69792C82.8016 5.82749 82.9528 5.92621 83.0268 5.99408L82.2309 7.15094C82.1815 7.10158 82.0859 7.02754 81.944 6.92882C81.8083 6.82393 81.6232 6.7283 81.3887 6.64192C81.1543 6.55554 80.8735 6.51235 80.5465 6.51235C80.1516 6.51235 79.766 6.62032 79.3897 6.83627C79.0195 7.04605 78.7141 7.35146 78.4734 7.7525C78.2328 8.15354 78.1125 8.6348 78.1125 9.19626C78.1125 9.75772 78.2328 10.2421 78.4734 10.6493C78.7141 11.0503 79.0195 11.3588 79.3897 11.5748C79.766 11.7845 80.1516 11.8894 80.5465 11.8894ZM84.2315 13V5.40177H85.8419V13H84.2315ZM85.0552 2.80116C84.7652 2.80116 84.5154 2.69935 84.3056 2.49575C84.102 2.28597 84.0002 2.03609 84.0002 1.7461C84.0002 1.45612 84.102 1.20624 84.3056 0.996462C84.5154 0.786686 84.7652 0.681797 85.0552 0.681797C85.2465 0.681797 85.4223 0.731156 85.5827 0.829875C85.7493 0.928594 85.882 1.05816 85.9807 1.21858C86.0794 1.37283 86.1288 1.54867 86.1288 1.7461C86.1288 2.03609 86.0239 2.28597 85.8141 2.49575C85.6043 2.69935 85.3514 2.80116 85.0552 2.80116ZM93.8564 13V11.5192C93.8071 11.6735 93.6621 11.8863 93.4215 12.1578C93.187 12.4293 92.8631 12.6761 92.4497 12.8982C92.0425 13.1141 91.5612 13.2221 91.0059 13.2221C90.3026 13.2221 89.664 13.0555 89.0902 12.7224C88.5226 12.3892 88.0691 11.9234 87.7297 11.3249C87.3965 10.7202 87.23 10.0138 87.23 9.20551C87.23 8.39726 87.3965 7.69389 87.7297 7.09541C88.0691 6.49076 88.5226 6.02184 89.0902 5.68867C89.664 5.34933 90.3026 5.17965 91.0059 5.17965C91.5551 5.17965 92.0301 5.27837 92.4312 5.47581C92.8384 5.67325 93.1623 5.90153 93.4029 6.16067C93.6497 6.4198 93.7947 6.64192 93.8379 6.82702V5.40177H95.4298V13H93.8564ZM88.8218 9.20551C88.8218 9.75463 88.9421 10.2297 89.1827 10.6308C89.4234 11.0318 89.7349 11.3434 90.1175 11.5655C90.5062 11.7814 90.9196 11.8894 91.3576 11.8894C91.8265 11.8894 92.2461 11.7784 92.6163 11.5562C92.9865 11.3341 93.2795 11.0225 93.4955 10.6215C93.7114 10.2143 93.8194 9.74229 93.8194 9.20551C93.8194 8.66873 93.7114 8.19982 93.4955 7.79878C93.2795 7.39156 92.9865 7.0769 92.6163 6.85478C92.2461 6.62649 91.8265 6.51235 91.3576 6.51235C90.9196 6.51235 90.5062 6.62341 90.1175 6.84553C89.7349 7.06764 89.4234 7.37922 89.1827 7.78027C88.9421 8.18131 88.8218 8.65639 88.8218 9.20551ZM102.089 9.52943C102.095 9.986 102.194 10.4025 102.385 10.7788C102.576 11.1552 102.86 11.4544 103.237 11.6766C103.619 11.8987 104.088 12.0097 104.643 12.0097C105.112 12.0097 105.51 11.9419 105.837 11.8061C106.17 11.6642 106.442 11.4976 106.652 11.3064C106.861 11.1089 107.013 10.9331 107.105 10.7788L107.892 11.7506C107.688 12.0468 107.438 12.3059 107.142 12.528C106.852 12.7501 106.497 12.9198 106.078 13.037C105.658 13.1604 105.146 13.2221 104.542 13.2221C103.727 13.2221 103.021 13.0494 102.422 12.7038C101.83 12.3522 101.373 11.8678 101.053 11.2508C100.732 10.6277 100.571 9.91505 100.571 9.11296C100.571 8.37258 100.722 7.70623 101.025 7.11392C101.327 6.51544 101.765 6.04344 102.339 5.69792C102.919 5.35241 103.616 5.17965 104.431 5.17965C105.177 5.17965 105.825 5.33699 106.374 5.65165C106.929 5.96015 107.358 6.39821 107.66 6.96584C107.969 7.53347 108.123 8.21216 108.123 9.00191C108.123 9.05126 108.12 9.14073 108.114 9.2703C108.108 9.39369 108.102 9.48007 108.095 9.52943H102.089ZM106.587 8.31705C106.581 8.06408 106.507 7.78644 106.365 7.48411C106.229 7.18179 106.007 6.92265 105.698 6.7067C105.39 6.49076 104.973 6.38278 104.449 6.38278C103.906 6.38278 103.468 6.48767 103.135 6.69745C102.808 6.90723 102.567 7.16328 102.413 7.4656C102.259 7.76176 102.169 8.04557 102.145 8.31705H106.587ZM118.462 5.17965C119.023 5.17965 119.505 5.30305 119.906 5.54985C120.307 5.79047 120.612 6.16067 120.822 6.66043C121.038 7.16019 121.146 7.79878 121.146 8.57618V13H119.554V8.9001C119.554 8.07951 119.44 7.46252 119.212 7.04913C118.983 6.63575 118.567 6.42906 117.962 6.42906C117.641 6.42906 117.333 6.51852 117.037 6.69745C116.747 6.87021 116.506 7.1386 116.315 7.50262C116.13 7.86664 116.037 8.33247 116.037 8.9001V13H114.538V8.9001C114.538 8.07951 114.396 7.46252 114.112 7.04913C113.828 6.63575 113.43 6.42906 112.918 6.42906C112.591 6.42906 112.283 6.51544 111.993 6.68819C111.709 6.85478 111.478 7.12009 111.299 7.48411C111.12 7.84813 111.03 8.32013 111.03 8.9001V13H109.429V5.40177H111.03V6.56788C111.098 6.37661 111.243 6.17301 111.465 5.95706C111.694 5.74111 111.984 5.5591 112.335 5.41102C112.693 5.25678 113.091 5.17965 113.529 5.17965C113.986 5.17965 114.368 5.2722 114.677 5.4573C114.985 5.6424 115.229 5.87068 115.408 6.14216C115.587 6.40746 115.71 6.66351 115.778 6.91031C115.865 6.645 116.031 6.3797 116.278 6.11439C116.525 5.84292 116.836 5.6208 117.213 5.44804C117.589 5.26912 118.005 5.17965 118.462 5.17965ZM132.98 13V11.5192C132.931 11.6735 132.786 11.8863 132.545 12.1578C132.31 12.4293 131.987 12.6761 131.573 12.8982C131.166 13.1141 130.685 13.2221 130.129 13.2221C129.426 13.2221 128.787 13.0555 128.214 12.7224C127.646 12.3892 127.192 11.9234 126.853 11.3249C126.52 10.7202 126.353 10.0138 126.353 9.20551C126.353 8.39726 126.52 7.69389 126.853 7.09541C127.192 6.49076 127.646 6.02184 128.214 5.68867C128.787 5.34933 129.426 5.17965 130.129 5.17965C130.678 5.17965 131.154 5.27837 131.555 5.47581C131.962 5.67325 132.286 5.90153 132.526 6.16067C132.773 6.4198 132.918 6.64192 132.961 6.82702V5.40177H134.553V13H132.98ZM127.945 9.20551C127.945 9.75463 128.066 10.2297 128.306 10.6308C128.547 11.0318 128.858 11.3434 129.241 11.5655C129.63 11.7814 130.043 11.8894 130.481 11.8894C130.95 11.8894 131.37 11.7784 131.74 11.5562C132.11 11.3341 132.403 11.0225 132.619 10.6215C132.835 10.2143 132.943 9.74229 132.943 9.20551C132.943 8.66873 132.835 8.19982 132.619 7.79878C132.403 7.39156 132.11 7.0769 131.74 6.85478C131.37 6.62649 130.95 6.51235 130.481 6.51235C130.043 6.51235 129.63 6.62341 129.241 6.84553C128.858 7.06764 128.547 7.37922 128.306 7.78027C128.066 8.18131 127.945 8.65639 127.945 9.20551ZM135.502 5.40177H136.992V2.28289H138.593V5.40177H140.546V6.78074H138.593V10.5382C138.593 10.9824 138.67 11.3094 138.824 11.5192C138.985 11.729 139.198 11.8339 139.463 11.8339C139.697 11.8339 139.879 11.7907 140.009 11.7043C140.138 11.6179 140.216 11.5593 140.24 11.5285L140.879 12.7131C140.842 12.7439 140.743 12.8026 140.583 12.8889C140.422 12.9753 140.216 13.0524 139.963 13.1203C139.71 13.1882 139.414 13.2221 139.074 13.2221C138.482 13.2221 137.985 13.0432 137.584 12.6853C137.189 12.3213 136.992 11.7475 136.992 10.9639V6.78074H135.502V5.40177ZM142.731 9.52943C142.737 9.986 142.836 10.4025 143.027 10.7788C143.218 11.1552 143.502 11.4544 143.878 11.6766C144.261 11.8987 144.73 12.0097 145.285 12.0097C145.754 12.0097 146.152 11.9419 146.479 11.8061C146.812 11.6642 147.084 11.4976 147.293 11.3064C147.503 11.1089 147.654 10.9331 147.747 10.7788L148.534 11.7506C148.33 12.0468 148.08 12.3059 147.784 12.528C147.494 12.7501 147.139 12.9198 146.72 13.037C146.3 13.1604 145.788 13.2221 145.183 13.2221C144.369 13.2221 143.662 13.0494 143.064 12.7038C142.472 12.3522 142.015 11.8678 141.694 11.2508C141.373 10.6277 141.213 9.91505 141.213 9.11296C141.213 8.37258 141.364 7.70623 141.667 7.11392C141.969 6.51544 142.407 6.04344 142.981 5.69792C143.561 5.35241 144.258 5.17965 145.072 5.17965C145.819 5.17965 146.467 5.33699 147.016 5.65165C147.571 5.96015 148 6.39821 148.302 6.96584C148.611 7.53347 148.765 8.21216 148.765 9.00191C148.765 9.05126 148.762 9.14073 148.756 9.2703C148.75 9.39369 148.743 9.48007 148.737 9.52943H142.731ZM147.229 8.31705C147.223 8.06408 147.148 7.78644 147.007 7.48411C146.871 7.18179 146.649 6.92265 146.34 6.7067C146.032 6.49076 145.615 6.38278 145.091 6.38278C144.548 6.38278 144.11 6.48767 143.777 6.69745C143.45 6.90723 143.209 7.16328 143.055 7.4656C142.901 7.76176 142.811 8.04557 142.786 8.31705H147.229ZM154.236 5.17965C154.736 5.17965 155.22 5.28454 155.689 5.49432C156.164 5.70409 156.553 6.03727 156.855 6.49384C157.163 6.94424 157.318 7.53347 157.318 8.26152V13H155.689V8.57618C155.689 7.82346 155.513 7.27742 155.161 6.93807C154.81 6.59256 154.356 6.4198 153.801 6.4198C153.437 6.4198 153.085 6.52469 152.746 6.73447C152.413 6.93807 152.138 7.22189 151.922 7.58591C151.706 7.94377 151.598 8.35098 151.598 8.80755V13H149.988V5.40177H151.598V6.75298C151.654 6.5432 151.805 6.31491 152.052 6.06812C152.298 5.82132 152.613 5.61155 152.996 5.43879C153.378 5.26603 153.792 5.17965 154.236 5.17965ZM162.218 13.2221C161.521 13.2221 160.895 13.0555 160.34 12.7224C159.791 12.3892 159.356 11.9234 159.035 11.3249C158.72 10.7202 158.563 10.0138 158.563 9.20551C158.563 8.39726 158.72 7.69389 159.035 7.09541C159.356 6.49076 159.791 6.02184 160.34 5.68867C160.895 5.34933 161.521 5.17965 162.218 5.17965C162.78 5.17965 163.273 5.27837 163.699 5.47581C164.125 5.66708 164.464 5.89228 164.717 6.15141C164.97 6.41055 165.115 6.63575 165.152 6.82702V0.265329H166.772V13H165.18V11.5192C165.112 11.729 164.942 11.9665 164.671 12.2318C164.406 12.4972 164.063 12.7285 163.644 12.926C163.224 13.1234 162.749 13.2221 162.218 13.2221ZM162.589 11.8894C163.057 11.8894 163.486 11.7784 163.875 11.5562C164.264 11.3341 164.572 11.0225 164.8 10.6215C165.035 10.2143 165.152 9.74229 165.152 9.20551C165.152 8.66873 165.035 8.19982 164.8 7.79878C164.572 7.39156 164.264 7.0769 163.875 6.85478C163.486 6.62649 163.057 6.51235 162.589 6.51235C162.157 6.51235 161.756 6.62341 161.385 6.84553C161.015 7.06764 160.716 7.37922 160.488 7.78027C160.266 8.18131 160.155 8.65639 160.155 9.20551C160.155 9.75463 160.266 10.2297 160.488 10.6308C160.716 11.0318 161.015 11.3434 161.385 11.5655C161.756 11.7814 162.157 11.8894 162.589 11.8894ZM168.195 13V5.40177H169.806V13H168.195ZM169.019 2.80116C168.729 2.80116 168.479 2.69935 168.269 2.49575C168.066 2.28597 167.964 2.03609 167.964 1.7461C167.964 1.45612 168.066 1.20624 168.269 0.996462C168.479 0.786686 168.729 0.681797 169.019 0.681797C169.21 0.681797 169.386 0.731156 169.547 0.829875C169.713 0.928594 169.846 1.05816 169.945 1.21858C170.043 1.37283 170.093 1.54867 170.093 1.7461C170.093 2.03609 169.988 2.28597 169.778 2.49575C169.568 2.69935 169.315 2.80116 169.019 2.80116ZM180.828 5.17965C181.39 5.17965 181.871 5.30305 182.272 5.54985C182.673 5.79047 182.978 6.16067 183.188 6.66043C183.404 7.16019 183.512 7.79878 183.512 8.57618V13H181.92V8.9001C181.92 8.07951 181.806 7.46252 181.578 7.04913C181.349 6.63575 180.933 6.42906 180.328 6.42906C180.008 6.42906 179.699 6.51852 179.403 6.69745C179.113 6.87021 178.872 7.1386 178.681 7.50262C178.496 7.86664 178.403 8.33247 178.403 8.9001V13H176.904V8.9001C176.904 8.07951 176.762 7.46252 176.478 7.04913C176.195 6.63575 175.797 6.42906 175.284 6.42906C174.957 6.42906 174.649 6.51544 174.359 6.68819C174.075 6.85478 173.844 7.12009 173.665 7.48411C173.486 7.84813 173.396 8.32013 173.396 8.9001V13H171.795V5.40177H173.396V6.56788C173.464 6.37661 173.609 6.17301 173.831 5.95706C174.06 5.74111 174.35 5.5591 174.701 5.41102C175.059 5.25678 175.457 5.17965 175.895 5.17965C176.352 5.17965 176.734 5.2722 177.043 5.4573C177.351 5.6424 177.595 5.87068 177.774 6.14216C177.953 6.40746 178.076 6.66351 178.144 6.91031C178.231 6.645 178.397 6.3797 178.644 6.11439C178.891 5.84292 179.202 5.6208 179.579 5.44804C179.955 5.26912 180.372 5.17965 180.828 5.17965ZM186.192 9.52943C186.199 9.986 186.297 10.4025 186.489 10.7788C186.68 11.1552 186.964 11.4544 187.34 11.6766C187.723 11.8987 188.192 12.0097 188.747 12.0097C189.216 12.0097 189.614 11.9419 189.941 11.8061C190.274 11.6642 190.545 11.4976 190.755 11.3064C190.965 11.1089 191.116 10.9331 191.209 10.7788L191.995 11.7506C191.792 12.0468 191.542 12.3059 191.246 12.528C190.956 12.7501 190.601 12.9198 190.181 13.037C189.762 13.1604 189.25 13.2221 188.645 13.2221C187.831 13.2221 187.124 13.0494 186.526 12.7038C185.933 12.3522 185.477 11.8678 185.156 11.2508C184.835 10.6277 184.675 9.91505 184.675 9.11296C184.675 8.37258 184.826 7.70623 185.128 7.11392C185.43 6.51544 185.869 6.04344 186.442 5.69792C187.022 5.35241 187.72 5.17965 188.534 5.17965C189.281 5.17965 189.928 5.33699 190.477 5.65165C191.033 5.96015 191.462 6.39821 191.764 6.96584C192.072 7.53347 192.227 8.21216 192.227 9.00191C192.227 9.05126 192.224 9.14073 192.217 9.2703C192.211 9.39369 192.205 9.48007 192.199 9.52943H186.192ZM190.69 8.31705C190.684 8.06408 190.61 7.78644 190.468 7.48411C190.332 7.18179 190.11 6.92265 189.802 6.7067C189.493 6.49076 189.077 6.38278 188.552 6.38278C188.01 6.38278 187.571 6.48767 187.238 6.69745C186.911 6.90723 186.671 7.16328 186.516 7.4656C186.362 7.76176 186.273 8.04557 186.248 8.31705H190.69ZM197.697 5.17965C198.197 5.17965 198.682 5.28454 199.15 5.49432C199.626 5.70409 200.014 6.03727 200.317 6.49384C200.625 6.94424 200.779 7.53347 200.779 8.26152V13H199.15V8.57618C199.15 7.82346 198.975 7.27742 198.623 6.93807C198.271 6.59256 197.818 6.4198 197.262 6.4198C196.898 6.4198 196.547 6.52469 196.207 6.73447C195.874 6.93807 195.6 7.22189 195.384 7.58591C195.168 7.94377 195.06 8.35098 195.06 8.80755V13H193.449V5.40177H195.06V6.75298C195.115 6.5432 195.266 6.31491 195.513 6.06812C195.76 5.82132 196.075 5.61155 196.457 5.43879C196.84 5.26603 197.253 5.17965 197.697 5.17965ZM201.682 5.40177H203.172V2.28289H204.773V5.40177H206.726V6.78074H204.773V10.5382C204.773 10.9824 204.85 11.3094 205.004 11.5192C205.165 11.729 205.378 11.8339 205.643 11.8339C205.877 11.8339 206.059 11.7907 206.189 11.7043C206.319 11.6179 206.396 11.5593 206.42 11.5285L207.059 12.7131C207.022 12.7439 206.923 12.8026 206.763 12.8889C206.602 12.9753 206.396 13.0524 206.143 13.1203C205.89 13.1882 205.594 13.2221 205.254 13.2221C204.662 13.2221 204.165 13.0432 203.764 12.6853C203.369 12.3213 203.172 11.7475 203.172 10.9639V6.78074H201.682V5.40177ZM211.419 13.2221C210.635 13.2221 209.938 13.0463 209.327 12.6946C208.723 12.3429 208.248 11.8678 207.902 11.2693C207.557 10.6647 207.384 9.98292 207.384 9.22402C207.384 8.46512 207.557 7.78027 207.902 7.16945C208.248 6.55863 208.723 6.07429 209.327 5.71643C209.938 5.35858 210.635 5.17965 211.419 5.17965C212.196 5.17965 212.884 5.35858 213.483 5.71643C214.088 6.07429 214.559 6.55863 214.899 7.16945C215.238 7.78027 215.408 8.46512 215.408 9.22402C215.408 9.98292 215.238 10.6647 214.899 11.2693C214.559 11.8678 214.088 12.3429 213.483 12.6946C212.884 13.0463 212.196 13.2221 211.419 13.2221ZM211.419 11.8431C211.913 11.8431 212.341 11.729 212.705 11.5007C213.076 11.2724 213.363 10.9608 213.566 10.566C213.77 10.1649 213.872 9.71453 213.872 9.21477C213.872 8.71501 213.77 8.2646 213.566 7.86356C213.363 7.46252 213.076 7.14477 212.705 6.91031C212.341 6.67585 211.913 6.55863 211.419 6.55863C210.919 6.55863 210.484 6.67585 210.114 6.91031C209.744 7.14477 209.454 7.46252 209.244 7.86356C209.041 8.2646 208.939 8.71501 208.939 9.21477C208.939 9.71453 209.041 10.1649 209.244 10.566C209.454 10.9608 209.744 11.2724 210.114 11.5007C210.484 11.729 210.919 11.8431 211.419 11.8431ZM221.701 9.52943C221.707 9.986 221.806 10.4025 221.997 10.7788C222.188 11.1552 222.472 11.4544 222.848 11.6766C223.231 11.8987 223.7 12.0097 224.255 12.0097C224.724 12.0097 225.122 11.9419 225.449 11.8061C225.782 11.6642 226.054 11.4976 226.263 11.3064C226.473 11.1089 226.624 10.9331 226.717 10.7788L227.504 11.7506C227.3 12.0468 227.05 12.3059 226.754 12.528C226.464 12.7501 226.109 12.9198 225.69 13.037C225.27 13.1604 224.758 13.2221 224.153 13.2221C223.339 13.2221 222.632 13.0494 222.034 12.7038C221.442 12.3522 220.985 11.8678 220.664 11.2508C220.343 10.6277 220.183 9.91505 220.183 9.11296C220.183 8.37258 220.334 7.70623 220.636 7.11392C220.939 6.51544 221.377 6.04344 221.951 5.69792C222.531 5.35241 223.228 5.17965 224.042 5.17965C224.789 5.17965 225.437 5.33699 225.986 5.65165C226.541 5.96015 226.97 6.39821 227.272 6.96584C227.581 7.53347 227.735 8.21216 227.735 9.00191C227.735 9.05126 227.732 9.14073 227.726 9.2703C227.719 9.39369 227.713 9.48007 227.707 9.52943H221.701ZM226.199 8.31705C226.192 8.06408 226.118 7.78644 225.976 7.48411C225.841 7.18179 225.619 6.92265 225.31 6.7067C225.002 6.49076 224.585 6.38278 224.061 6.38278C223.518 6.38278 223.08 6.48767 222.747 6.69745C222.42 6.90723 222.179 7.16328 222.025 7.4656C221.87 7.76176 221.781 8.04557 221.756 8.31705H226.199ZM6.43681 33.85V28.7691C6.38745 28.8987 6.2548 29.0807 6.03885 29.3151C5.82291 29.5434 5.52675 29.7532 5.15039 29.9445C4.78019 30.1296 4.3267 30.2221 3.78992 30.2221C3.05571 30.2221 2.41404 30.0432 1.86492 29.6853C1.31579 29.3213 0.890071 28.837 0.587746 28.2323C0.285421 27.6215 0.134259 26.9459 0.134259 26.2055C0.134259 25.4651 0.276166 24.7926 0.559982 24.188C0.843797 23.5771 1.25101 23.0897 1.78162 22.7257C2.31223 22.3617 2.94465 22.1797 3.67887 22.1797C4.16629 22.1797 4.59818 22.2568 4.97454 22.411C5.35708 22.5591 5.66866 22.738 5.90928 22.9478C6.15608 23.1514 6.32267 23.3396 6.40905 23.5124V22.4018H9.21326V33.85H6.43681ZM4.62286 28.0102C4.96837 28.0102 5.27378 27.9331 5.53909 27.7788C5.8044 27.6246 6.01417 27.4117 6.16842 27.1403C6.32884 26.8626 6.40905 26.551 6.40905 26.2055C6.40905 25.86 6.32884 25.5515 6.16842 25.28C6.01417 25.0024 5.8044 24.7864 5.53909 24.6322C5.27378 24.4718 4.96837 24.3916 4.62286 24.3916C4.30203 24.3916 4.00896 24.4718 3.74365 24.6322C3.48451 24.7864 3.27782 25.0024 3.12357 25.28C2.96933 25.5515 2.8922 25.86 2.8922 26.2055C2.8922 26.551 2.96933 26.8626 3.12357 27.1403C3.27782 27.4117 3.48451 27.6246 3.74365 27.7788C4.00896 27.9331 4.30203 28.0102 4.62286 28.0102ZM12.8672 25.9186C12.8672 26.5233 12.9813 27.0076 13.2096 27.3716C13.4379 27.7295 13.8204 27.9084 14.3572 27.9084C14.9063 27.9084 15.292 27.7295 15.5141 27.3716C15.7424 27.0076 15.8565 26.5233 15.8565 25.9186V22.4018H18.633V26.2148C18.633 27.0292 18.4633 27.7387 18.1239 28.3434C17.7908 28.9419 17.3064 29.4046 16.6709 29.7316C16.0354 30.0586 15.2642 30.2221 14.3572 30.2221C13.4564 30.2221 12.6883 30.0586 12.0528 29.7316C11.4173 29.4046 10.9329 28.9419 10.5998 28.3434C10.2666 27.7387 10.1 27.0292 10.1 26.2148V22.4018H12.8672V25.9186ZM25.6824 30V28.7691C25.6269 28.8925 25.485 29.0714 25.2567 29.3059C25.0346 29.5403 24.7384 29.7532 24.3682 29.9445C23.998 30.1296 23.5661 30.2221 23.0725 30.2221C22.3322 30.2221 21.6843 30.0432 21.129 29.6853C20.5737 29.3213 20.1418 28.837 19.8333 28.2323C19.5249 27.6215 19.3706 26.9459 19.3706 26.2055C19.3706 25.4651 19.5249 24.7926 19.8333 24.188C20.1418 23.5771 20.5737 23.0897 21.129 22.7257C21.6843 22.3617 22.3322 22.1797 23.0725 22.1797C23.5476 22.1797 23.9641 22.2568 24.3219 22.411C24.6798 22.5591 24.9698 22.738 25.1919 22.9478C25.414 23.1514 25.5683 23.3396 25.6546 23.5124V22.4018H28.4496V30H25.6824ZM22.1285 26.2055C22.1285 26.551 22.2088 26.8626 22.3692 27.1403C22.5296 27.4117 22.7425 27.6246 23.0078 27.7788C23.2792 27.9331 23.5785 28.0102 23.9055 28.0102C24.2448 28.0102 24.5441 27.9331 24.8032 27.7788C25.0623 27.6246 25.2659 27.4117 25.414 27.1403C25.5683 26.8626 25.6454 26.551 25.6454 26.2055C25.6454 25.86 25.5683 25.5515 25.414 25.28C25.2659 25.0024 25.0623 24.7864 24.8032 24.6322C24.5441 24.4718 24.2448 24.3916 23.9055 24.3916C23.5785 24.3916 23.2792 24.4718 23.0078 24.6322C22.7425 24.7864 22.5296 25.0024 22.3692 25.28C22.2088 25.5515 22.1285 25.86 22.1285 26.2055ZM32.4931 30H29.6704V17.2653H32.4931V30ZM33.8443 30V22.4018H36.6578V30H33.8443ZM35.2881 20.8377C34.8438 20.8377 34.4675 20.6835 34.159 20.375C33.8505 20.0603 33.6962 19.687 33.6962 19.2551C33.6962 18.8232 33.8505 18.4499 34.159 18.1353C34.4736 17.8144 34.85 17.654 35.2881 17.654C35.5781 17.654 35.8434 17.7281 36.084 17.8761C36.3246 18.0181 36.519 18.2093 36.667 18.45C36.8151 18.6906 36.8892 18.959 36.8892 19.2551C36.8892 19.687 36.7318 20.0603 36.4172 20.375C36.1025 20.6835 35.7261 20.8377 35.2881 20.8377ZM41.2985 30.2221C40.5643 30.2221 39.9257 30.0432 39.3828 29.6853C38.8398 29.3213 38.4172 28.837 38.1149 28.2323C37.8187 27.6215 37.6706 26.9459 37.6706 26.2055C37.6706 25.4651 37.8187 24.7926 38.1149 24.188C38.4172 23.5771 38.8398 23.0897 39.3828 22.7257C39.9257 22.3617 40.5643 22.1797 41.2985 22.1797C41.7859 22.1797 42.2178 22.2568 42.5942 22.411C42.9706 22.5591 43.276 22.738 43.5104 22.9478C43.7449 23.1514 43.8868 23.3396 43.9362 23.5124V17.2653H46.7496V30H43.9639V28.7691C43.8467 28.9974 43.6554 29.2257 43.3901 29.454C43.1248 29.6761 42.8132 29.8581 42.4554 30C42.0975 30.1481 41.7119 30.2221 41.2985 30.2221ZM42.1592 28.0102C42.4986 28.0102 42.8009 27.9331 43.0662 27.7788C43.3377 27.6246 43.5505 27.4117 43.7048 27.1403C43.859 26.8626 43.9362 26.551 43.9362 26.2055C43.9362 25.86 43.859 25.5515 43.7048 25.28C43.5505 25.0024 43.3377 24.7864 43.0662 24.6322C42.8009 24.4718 42.4986 24.3916 42.1592 24.3916C41.8322 24.3916 41.5361 24.4718 41.2708 24.6322C41.0116 24.7864 40.8049 25.0024 40.6507 25.28C40.5026 25.5515 40.4286 25.86 40.4286 26.2055C40.4286 26.551 40.5026 26.8626 40.6507 27.1403C40.8049 27.4117 41.0116 27.6246 41.2708 27.7788C41.5361 27.9331 41.8322 28.0102 42.1592 28.0102ZM53.7203 30V28.7691C53.6647 28.8925 53.5228 29.0714 53.2945 29.3059C53.0724 29.5403 52.7763 29.7532 52.4061 29.9445C52.0359 30.1296 51.604 30.2221 51.1104 30.2221C50.37 30.2221 49.7222 30.0432 49.1669 29.6853C48.6116 29.3213 48.1797 28.837 47.8712 28.2323C47.5627 27.6215 47.4085 26.9459 47.4085 26.2055C47.4085 25.4651 47.5627 24.7926 47.8712 24.188C48.1797 23.5771 48.6116 23.0897 49.1669 22.7257C49.7222 22.3617 50.37 22.1797 51.1104 22.1797C51.5855 22.1797 52.0019 22.2568 52.3598 22.411C52.7176 22.5591 53.0076 22.738 53.2298 22.9478C53.4519 23.1514 53.6061 23.3396 53.6925 23.5124V22.4018H56.4875V30H53.7203ZM50.1664 26.2055C50.1664 26.551 50.2466 26.8626 50.407 27.1403C50.5674 27.4117 50.7803 27.6246 51.0456 27.7788C51.3171 27.9331 51.6163 28.0102 51.9433 28.0102C52.2827 28.0102 52.5819 27.9331 52.841 27.7788C53.1002 27.6246 53.3038 27.4117 53.4519 27.1403C53.6061 26.8626 53.6832 26.551 53.6832 26.2055C53.6832 25.86 53.6061 25.5515 53.4519 25.28C53.3038 25.0024 53.1002 24.7864 52.841 24.6322C52.5819 24.4718 52.2827 24.3916 51.9433 24.3916C51.6163 24.3916 51.3171 24.4718 51.0456 24.6322C50.7803 24.7864 50.5674 25.0024 50.407 25.28C50.2466 25.5515 50.1664 25.86 50.1664 26.2055ZM60.9752 30.2221C60.241 30.2221 59.6024 30.0432 59.0594 29.6853C58.5165 29.3213 58.0938 28.837 57.7915 28.2323C57.4954 27.6215 57.3473 26.9459 57.3473 26.2055C57.3473 25.4651 57.4954 24.7926 57.7915 24.188C58.0938 23.5771 58.5165 23.0897 59.0594 22.7257C59.6024 22.3617 60.241 22.1797 60.9752 22.1797C61.4626 22.1797 61.8945 22.2568 62.2709 22.411C62.6472 22.5591 62.9526 22.738 63.1871 22.9478C63.4216 23.1514 63.5635 23.3396 63.6128 23.5124V17.2653H66.4263V30H63.6406V28.7691C63.5234 28.9974 63.3321 29.2257 63.0668 29.454C62.8015 29.6761 62.4899 29.8581 62.132 30C61.7742 30.1481 61.3886 30.2221 60.9752 30.2221ZM61.8359 28.0102C62.1752 28.0102 62.4776 27.9331 62.7429 27.7788C63.0143 27.6246 63.2272 27.4117 63.3815 27.1403C63.5357 26.8626 63.6128 26.551 63.6128 26.2055C63.6128 25.86 63.5357 25.5515 63.3815 25.28C63.2272 25.0024 63.0143 24.7864 62.7429 24.6322C62.4776 24.4718 62.1752 24.3916 61.8359 24.3916C61.5089 24.3916 61.2127 24.4718 60.9474 24.6322C60.6883 24.7864 60.4816 25.0024 60.3274 25.28C60.1793 25.5515 60.1052 25.86 60.1052 26.2055C60.1052 26.551 60.1793 26.8626 60.3274 27.1403C60.4816 27.4117 60.6883 27.6246 60.9474 27.7788C61.2127 27.9331 61.5089 28.0102 61.8359 28.0102ZM69.7413 26.7978C69.7598 27.0693 69.8462 27.3099 70.0004 27.5197C70.1547 27.7295 70.3675 27.8961 70.639 28.0195C70.9166 28.1367 71.2436 28.1953 71.62 28.1953C71.9779 28.1953 72.2987 28.1583 72.5825 28.0842C72.8725 28.0102 73.1224 27.9177 73.3322 27.8066C73.5481 27.6955 73.7147 27.5814 73.8319 27.4642L74.924 29.2041C74.7697 29.3707 74.5507 29.5342 74.2669 29.6946C73.9892 29.8488 73.6221 29.9753 73.1656 30.074C72.709 30.1728 72.1321 30.2221 71.4349 30.2221C70.5958 30.2221 69.8492 30.0648 69.1952 29.7501C68.5412 29.4355 68.026 28.9727 67.6497 28.3619C67.2733 27.7511 67.0851 27.0045 67.0851 26.1222C67.0851 25.3818 67.2455 24.7155 67.5664 24.1232C67.8934 23.5247 68.3654 23.0527 68.9824 22.7072C69.5994 22.3555 70.3428 22.1797 71.2128 22.1797C72.0396 22.1797 72.7553 22.3308 73.3599 22.6331C73.9707 22.9355 74.4396 23.3859 74.7667 23.9843C75.0998 24.5767 75.2664 25.317 75.2664 26.2055C75.2664 26.2549 75.2633 26.3536 75.2572 26.5017C75.2572 26.6497 75.251 26.7485 75.2386 26.7978H69.7413ZM72.6195 25.3263C72.6134 25.1289 72.5609 24.9345 72.4622 24.7432C72.3635 24.5458 72.2154 24.3854 72.018 24.262C71.8205 24.1324 71.5676 24.0676 71.2591 24.0676C70.9506 24.0676 70.6883 24.1293 70.4724 24.2527C70.2626 24.37 70.1022 24.5242 69.9912 24.7155C69.8801 24.9067 69.8184 25.1104 69.8061 25.3263H72.6195ZM83.766 30.2221C83.0318 30.2221 82.3932 30.0432 81.8502 29.6853C81.3073 29.3213 80.8846 28.837 80.5823 28.2323C80.2862 27.6215 80.1381 26.9459 80.1381 26.2055C80.1381 25.4651 80.2862 24.7926 80.5823 24.188C80.8846 23.5771 81.3073 23.0897 81.8502 22.7257C82.3932 22.3617 83.0318 22.1797 83.766 22.1797C84.2534 22.1797 84.6853 22.2568 85.0617 22.411C85.438 22.5591 85.7434 22.738 85.9779 22.9478C86.2123 23.1514 86.3543 23.3396 86.4036 23.5124V17.2653H89.2171V30H86.4314V28.7691C86.3141 28.9974 86.1229 29.2257 85.8576 29.454C85.5923 29.6761 85.2807 29.8581 84.9228 30C84.565 30.1481 84.1794 30.2221 83.766 30.2221ZM84.6267 28.0102C84.966 28.0102 85.2683 27.9331 85.5337 27.7788C85.8051 27.6246 86.018 27.4117 86.1722 27.1403C86.3265 26.8626 86.4036 26.551 86.4036 26.2055C86.4036 25.86 86.3265 25.5515 86.1722 25.28C86.018 25.0024 85.8051 24.7864 85.5337 24.6322C85.2683 24.4718 84.966 24.3916 84.6267 24.3916C84.2997 24.3916 84.0035 24.4718 83.7382 24.6322C83.4791 24.7864 83.2724 25.0024 83.1181 25.28C82.9701 25.5515 82.896 25.86 82.896 26.2055C82.896 26.551 82.9701 26.8626 83.1181 27.1403C83.2724 27.4117 83.4791 27.6246 83.7382 27.7788C84.0035 27.9331 84.2997 28.0102 84.6267 28.0102ZM92.532 26.7978C92.5506 27.0693 92.6369 27.3099 92.7912 27.5197C92.9454 27.7295 93.1583 27.8961 93.4298 28.0195C93.7074 28.1367 94.0344 28.1953 94.4108 28.1953C94.7686 28.1953 95.0895 28.1583 95.3733 28.0842C95.6633 28.0102 95.9132 27.9177 96.1229 27.8066C96.3389 27.6955 96.5055 27.5814 96.6227 27.4642L97.7148 29.2041C97.5605 29.3707 97.3415 29.5342 97.0577 29.6946C96.78 29.8488 96.4129 29.9753 95.9563 30.074C95.4998 30.1728 94.9229 30.2221 94.2257 30.2221C93.3866 30.2221 92.64 30.0648 91.986 29.7501C91.332 29.4355 90.8168 28.9727 90.4405 28.3619C90.0641 27.7511 89.8759 27.0045 89.8759 26.1222C89.8759 25.3818 90.0363 24.7155 90.3572 24.1232C90.6842 23.5247 91.1562 23.0527 91.7732 22.7072C92.3901 22.3555 93.1336 22.1797 94.0036 22.1797C94.8303 22.1797 95.546 22.3308 96.1507 22.6331C96.7615 22.9355 97.2304 23.3859 97.5574 23.9843C97.8906 24.5767 98.0572 25.317 98.0572 26.2055C98.0572 26.2549 98.0541 26.3536 98.0479 26.5017C98.0479 26.6497 98.0418 26.7485 98.0294 26.7978H92.532ZM95.4103 25.3263C95.4041 25.1289 95.3517 24.9345 95.253 24.7432C95.1543 24.5458 95.0062 24.3854 94.8087 24.262C94.6113 24.1324 94.3583 24.0676 94.0498 24.0676C93.7413 24.0676 93.4791 24.1293 93.2632 24.2527C93.0534 24.37 92.893 24.5242 92.7819 24.7155C92.6709 24.9067 92.6092 25.1104 92.5968 25.3263H95.4103ZM106.705 22.1797C107.205 22.1797 107.661 22.2228 108.075 22.3092C108.488 22.3894 108.833 22.482 109.111 22.5869C109.395 22.6918 109.577 22.7781 109.657 22.846L108.741 24.5026C108.624 24.4162 108.405 24.3052 108.084 24.1694C107.769 24.0337 107.417 23.9658 107.029 23.9658C106.733 23.9658 106.483 24.0121 106.279 24.1047C106.076 24.191 105.974 24.3299 105.974 24.5211C105.974 24.7124 106.085 24.8666 106.307 24.9839C106.535 25.0949 106.862 25.1936 107.288 25.28C107.658 25.3541 108.034 25.4713 108.417 25.6317C108.8 25.7921 109.117 26.0297 109.37 26.3443C109.629 26.6528 109.759 27.0662 109.759 27.5845C109.759 28.1151 109.645 28.5532 109.417 28.8987C109.188 29.2442 108.886 29.5126 108.51 29.7038C108.133 29.8951 107.726 30.0278 107.288 30.1018C106.85 30.182 106.424 30.2221 106.011 30.2221C105.431 30.2221 104.925 30.1697 104.493 30.0648C104.067 29.9599 103.722 29.8396 103.456 29.7038C103.191 29.5681 103.006 29.4601 102.901 29.3799L103.808 27.529C103.968 27.6647 104.231 27.8189 104.595 27.9917C104.959 28.1583 105.344 28.2416 105.752 28.2416C106.146 28.2416 106.452 28.183 106.668 28.0657C106.884 27.9485 106.992 27.7943 106.992 27.603C106.992 27.4487 106.939 27.3253 106.834 27.2328C106.73 27.1403 106.581 27.06 106.39 26.9922C106.199 26.9243 105.968 26.8626 105.696 26.8071C105.449 26.7577 105.187 26.6806 104.909 26.5757C104.632 26.4708 104.37 26.3289 104.123 26.15C103.876 25.9649 103.675 25.7335 103.521 25.4559C103.367 25.1782 103.29 24.842 103.29 24.4471C103.29 23.9412 103.453 23.5216 103.78 23.1884C104.107 22.8553 104.53 22.6054 105.048 22.4388C105.566 22.266 106.119 22.1797 106.705 22.1797ZM112.937 26.7978C112.955 27.0693 113.042 27.3099 113.196 27.5197C113.35 27.7295 113.563 27.8961 113.835 28.0195C114.112 28.1367 114.439 28.1953 114.816 28.1953C115.173 28.1953 115.494 28.1583 115.778 28.0842C116.068 28.0102 116.318 27.9177 116.528 27.8066C116.744 27.6955 116.91 27.5814 117.027 27.4642L118.12 29.2041C117.965 29.3707 117.746 29.5342 117.462 29.6946C117.185 29.8488 116.818 29.9753 116.361 30.074C115.905 30.1728 115.328 30.2221 114.63 30.2221C113.791 30.2221 113.045 30.0648 112.391 29.7501C111.737 29.4355 111.222 28.9727 110.845 28.3619C110.469 27.7511 110.281 27.0045 110.281 26.1222C110.281 25.3818 110.441 24.7155 110.762 24.1232C111.089 23.5247 111.561 23.0527 112.178 22.7072C112.795 22.3555 113.538 22.1797 114.408 22.1797C115.235 22.1797 115.951 22.3308 116.555 22.6331C117.166 22.9355 117.635 23.3859 117.962 23.9843C118.295 24.5767 118.462 25.317 118.462 26.2055C118.462 26.2549 118.459 26.3536 118.453 26.5017C118.453 26.6497 118.447 26.7485 118.434 26.7978H112.937ZM115.815 25.3263C115.809 25.1289 115.756 24.9345 115.658 24.7432C115.559 24.5458 115.411 24.3854 115.214 24.262C115.016 24.1324 114.763 24.0676 114.455 24.0676C114.146 24.0676 113.884 24.1293 113.668 24.2527C113.458 24.37 113.298 24.5242 113.187 24.7155C113.076 24.9067 113.014 25.1104 113.002 25.3263H115.815ZM121.933 30H119.12V22.4018H121.933V23.5771H121.887C121.936 23.4352 122.057 23.2563 122.248 23.0404C122.439 22.8182 122.708 22.6208 123.053 22.448C123.399 22.2691 123.821 22.1797 124.321 22.1797C124.673 22.1797 124.997 22.2352 125.293 22.3462C125.589 22.4511 125.805 22.5529 125.941 22.6517L124.849 24.9376C124.762 24.8327 124.608 24.7247 124.386 24.6137C124.17 24.4965 123.899 24.4378 123.572 24.4378C123.195 24.4378 122.884 24.5335 122.637 24.7247C122.396 24.916 122.217 25.1474 122.1 25.4189C121.989 25.6903 121.933 25.9464 121.933 26.187V30ZM125.459 22.4018H128.467L130.299 27.4457L132.141 22.4018H135.131L131.947 30H128.652L125.459 22.4018ZM135.804 30V22.4018H138.617V30H135.804ZM137.248 20.8377C136.803 20.8377 136.427 20.6835 136.118 20.375C135.81 20.0603 135.656 19.687 135.656 19.2551C135.656 18.8232 135.81 18.4499 136.118 18.1353C136.433 17.8144 136.81 17.654 137.248 17.654C137.538 17.654 137.803 17.7281 138.043 17.8761C138.284 18.0181 138.478 18.2093 138.627 18.45C138.775 18.6906 138.849 18.959 138.849 19.2551C138.849 19.687 138.691 20.0603 138.377 20.375C138.062 20.6835 137.686 20.8377 137.248 20.8377ZM144.119 28.0102C144.47 28.0102 144.76 27.9516 144.989 27.8344C145.217 27.711 145.371 27.6122 145.451 27.5382L146.738 29.4447C146.639 29.5249 146.469 29.6298 146.229 29.7594C145.988 29.8828 145.686 29.9907 145.322 30.0833C144.964 30.1758 144.554 30.2221 144.091 30.2221C143.221 30.2221 142.456 30.0586 141.796 29.7316C141.136 29.3984 140.62 28.9295 140.25 28.3249C139.886 27.7202 139.704 27.0107 139.704 26.1963C139.704 25.3757 139.886 24.6661 140.25 24.0676C140.62 23.4692 141.136 23.0064 141.796 22.6794C142.456 22.3462 143.221 22.1797 144.091 22.1797C144.548 22.1797 144.955 22.229 145.313 22.3277C145.677 22.4203 145.982 22.5283 146.229 22.6517C146.476 22.7689 146.648 22.8707 146.747 22.9571L145.433 24.8821C145.39 24.8389 145.31 24.7772 145.192 24.697C145.081 24.6168 144.936 24.5458 144.757 24.4841C144.578 24.4224 144.366 24.3916 144.119 24.3916C143.816 24.3916 143.533 24.4687 143.267 24.6229C143.008 24.7772 142.798 24.99 142.638 25.2615C142.478 25.533 142.397 25.8446 142.397 26.1963C142.397 26.5479 142.478 26.8626 142.638 27.1403C142.798 27.4117 143.008 27.6246 143.267 27.7788C143.533 27.9331 143.816 28.0102 144.119 28.0102ZM143.082 34.0073C142.496 34.0073 141.999 33.9179 141.592 33.739C141.191 33.56 140.913 33.3873 140.759 33.2207L141.685 32.1749C141.796 32.2983 141.956 32.4248 142.166 32.5543C142.382 32.6839 142.61 32.7487 142.851 32.7487C143.073 32.7487 143.249 32.6962 143.378 32.5914C143.514 32.4865 143.582 32.3476 143.582 32.1749C143.582 31.9651 143.499 31.8109 143.332 31.7121C143.165 31.6134 142.968 31.5641 142.74 31.5641C142.548 31.5641 142.385 31.5764 142.249 31.6011C142.12 31.6319 142.033 31.6628 141.99 31.6936L141.851 31.5826L142.564 29.6113L143.545 29.9445L143.212 30.7774C143.557 30.7527 143.884 30.7928 144.193 30.8977C144.501 31.0026 144.751 31.163 144.942 31.379C145.14 31.5949 145.239 31.8633 145.239 32.1841C145.239 32.5667 145.14 32.8937 144.942 33.1652C144.745 33.4366 144.48 33.6433 144.146 33.7852C143.819 33.9333 143.465 34.0073 143.082 34.0073ZM150.869 30.2221C150.036 30.2221 149.296 30.0524 148.648 29.7131C148.006 29.3676 147.5 28.8956 147.13 28.2971C146.766 27.6925 146.584 27.0014 146.584 26.224C146.584 25.4466 146.766 24.7556 147.13 24.1509C147.5 23.5401 148.006 23.0589 148.648 22.7072C149.296 22.3555 150.036 22.1797 150.869 22.1797C151.702 22.1797 152.436 22.3555 153.072 22.7072C153.707 23.0589 154.204 23.5401 154.562 24.1509C154.92 24.7556 155.099 25.4466 155.099 26.224C155.099 27.0014 154.92 27.6925 154.562 28.2971C154.204 28.8956 153.707 29.3676 153.072 29.7131C152.436 30.0524 151.702 30.2221 150.869 30.2221ZM150.869 27.9084C151.19 27.9084 151.468 27.8375 151.702 27.6955C151.937 27.5536 152.119 27.3531 152.248 27.094C152.378 26.8348 152.443 26.5418 152.443 26.2148C152.443 25.8816 152.378 25.5854 152.248 25.3263C152.119 25.0672 151.937 24.8636 151.702 24.7155C151.468 24.5674 151.19 24.4934 150.869 24.4934C150.548 24.4934 150.268 24.5674 150.027 24.7155C149.793 24.8636 149.608 25.0672 149.472 25.3263C149.342 25.5854 149.277 25.8816 149.277 26.2148C149.277 26.5418 149.342 26.8348 149.472 27.094C149.608 27.3531 149.793 27.5536 150.027 27.6955C150.268 27.8375 150.548 27.9084 150.869 27.9084ZM163.609 30.2221C162.874 30.2221 162.236 30.0432 161.693 29.6853C161.15 29.3213 160.727 28.837 160.425 28.2323C160.129 27.6215 159.981 26.9459 159.981 26.2055C159.981 25.4651 160.129 24.7926 160.425 24.188C160.727 23.5771 161.15 23.0897 161.693 22.7257C162.236 22.3617 162.874 22.1797 163.609 22.1797C164.096 22.1797 164.528 22.2568 164.904 22.411C165.281 22.5591 165.586 22.738 165.82 22.9478C166.055 23.1514 166.197 23.3396 166.246 23.5124V17.2653H169.06V30H166.274V28.7691C166.157 28.9974 165.965 29.2257 165.7 29.454C165.435 29.6761 165.123 29.8581 164.765 30C164.408 30.1481 164.022 30.2221 163.609 30.2221ZM164.469 28.0102C164.809 28.0102 165.111 27.9331 165.376 27.7788C165.648 27.6246 165.861 27.4117 166.015 27.1403C166.169 26.8626 166.246 26.551 166.246 26.2055C166.246 25.86 166.169 25.5515 166.015 25.28C165.861 25.0024 165.648 24.7864 165.376 24.6322C165.111 24.4718 164.809 24.3916 164.469 24.3916C164.142 24.3916 163.846 24.4718 163.581 24.6322C163.322 24.7864 163.115 25.0024 162.961 25.28C162.813 25.5515 162.739 25.86 162.739 26.2055C162.739 26.551 162.813 26.8626 162.961 27.1403C163.115 27.4117 163.322 27.6246 163.581 27.7788C163.846 27.9331 164.142 28.0102 164.469 28.0102ZM172.375 26.7978C172.393 27.0693 172.48 27.3099 172.634 27.5197C172.788 27.7295 173.001 27.8961 173.272 28.0195C173.55 28.1367 173.877 28.1953 174.253 28.1953C174.611 28.1953 174.932 28.1583 175.216 28.0842C175.506 28.0102 175.756 27.9177 175.966 27.8066C176.181 27.6955 176.348 27.5814 176.465 27.4642L177.557 29.2041C177.403 29.3707 177.184 29.5342 176.9 29.6946C176.623 29.8488 176.255 29.9753 175.799 30.074C175.342 30.1728 174.765 30.2221 174.068 30.2221C173.229 30.2221 172.483 30.0648 171.829 29.7501C171.175 29.4355 170.659 28.9727 170.283 28.3619C169.907 27.7511 169.718 27.0045 169.718 26.1222C169.718 25.3818 169.879 24.7155 170.2 24.1232C170.527 23.5247 170.999 23.0527 171.616 22.7072C172.233 22.3555 172.976 22.1797 173.846 22.1797C174.673 22.1797 175.389 22.3308 175.993 22.6331C176.604 22.9355 177.073 23.3859 177.4 23.9843C177.733 24.5767 177.9 25.317 177.9 26.2055C177.9 26.2549 177.897 26.3536 177.891 26.5017C177.891 26.6497 177.884 26.7485 177.872 26.7978H172.375ZM175.253 25.3263C175.247 25.1289 175.194 24.9345 175.096 24.7432C174.997 24.5458 174.849 24.3854 174.651 24.262C174.454 24.1324 174.201 24.0676 173.892 24.0676C173.584 24.0676 173.322 24.1293 173.106 24.2527C172.896 24.37 172.736 24.5242 172.625 24.7155C172.513 24.9067 172.452 25.1104 172.439 25.3263H175.253ZM182.204 22.1797C182.704 22.1797 183.16 22.2228 183.574 22.3092C183.987 22.3894 184.333 22.482 184.61 22.5869C184.894 22.6918 185.076 22.7781 185.156 22.846L184.24 24.5026C184.123 24.4162 183.904 24.3052 183.583 24.1694C183.268 24.0337 182.917 23.9658 182.528 23.9658C182.232 23.9658 181.982 24.0121 181.778 24.1047C181.575 24.191 181.473 24.3299 181.473 24.5211C181.473 24.7124 181.584 24.8666 181.806 24.9839C182.034 25.0949 182.361 25.1936 182.787 25.28C183.157 25.3541 183.534 25.4713 183.916 25.6317C184.299 25.7921 184.617 26.0297 184.87 26.3443C185.129 26.6528 185.258 27.0662 185.258 27.5845C185.258 28.1151 185.144 28.5532 184.916 28.8987C184.688 29.2442 184.385 29.5126 184.009 29.7038C183.632 29.8951 183.225 30.0278 182.787 30.1018C182.349 30.182 181.923 30.2221 181.51 30.2221C180.93 30.2221 180.424 30.1697 179.992 30.0648C179.567 29.9599 179.221 29.8396 178.956 29.7038C178.69 29.5681 178.505 29.4601 178.4 29.3799L179.307 27.529C179.468 27.6647 179.73 27.8189 180.094 27.9917C180.458 28.1583 180.844 28.2416 181.251 28.2416C181.646 28.2416 181.951 28.183 182.167 28.0657C182.383 27.9485 182.491 27.7943 182.491 27.603C182.491 27.4487 182.439 27.3253 182.334 27.2328C182.229 27.1403 182.081 27.06 181.889 26.9922C181.698 26.9243 181.467 26.8626 181.195 26.8071C180.949 26.7577 180.686 26.6806 180.409 26.5757C180.131 26.4708 179.869 26.3289 179.622 26.15C179.375 25.9649 179.175 25.7335 179.02 25.4559C178.866 25.1782 178.789 24.842 178.789 24.4471C178.789 23.9412 178.953 23.5216 179.28 23.1884C179.607 22.8553 180.029 22.6054 180.548 22.4388C181.066 22.266 181.618 22.1797 182.204 22.1797ZM189.454 30.2221C188.72 30.2221 188.081 30.0432 187.538 29.6853C186.995 29.3213 186.573 28.837 186.271 28.2323C185.974 27.6215 185.826 26.9459 185.826 26.2055C185.826 25.4651 185.974 24.7926 186.271 24.188C186.573 23.5771 186.995 23.0897 187.538 22.7257C188.081 22.3617 188.72 22.1797 189.454 22.1797C189.942 22.1797 190.373 22.2568 190.75 22.411C191.126 22.5591 191.432 22.738 191.666 22.9478C191.901 23.1514 192.042 23.3396 192.092 23.5124V17.2653H194.905V30H192.12V28.7691C192.002 28.9974 191.811 29.2257 191.546 29.454C191.28 29.6761 190.969 29.8581 190.611 30C190.253 30.1481 189.868 30.2221 189.454 30.2221ZM190.315 28.0102C190.654 28.0102 190.957 27.9331 191.222 27.7788C191.493 27.6246 191.706 27.4117 191.86 27.1403C192.015 26.8626 192.092 26.551 192.092 26.2055C192.092 25.86 192.015 25.5515 191.86 25.28C191.706 25.0024 191.493 24.7864 191.222 24.6322C190.957 24.4718 190.654 24.3916 190.315 24.3916C189.988 24.3916 189.692 24.4718 189.426 24.6322C189.167 24.7864 188.961 25.0024 188.806 25.28C188.658 25.5515 188.584 25.86 188.584 26.2055C188.584 26.551 188.658 26.8626 188.806 27.1403C188.961 27.4117 189.167 27.6246 189.426 27.7788C189.692 27.9331 189.988 28.0102 190.315 28.0102ZM198.22 26.7978C198.239 27.0693 198.325 27.3099 198.479 27.5197C198.634 27.7295 198.846 27.8961 199.118 28.0195C199.396 28.1367 199.723 28.1953 200.099 28.1953C200.457 28.1953 200.778 28.1583 201.061 28.0842C201.351 28.0102 201.601 27.9177 201.811 27.8066C202.027 27.6955 202.194 27.5814 202.311 27.4642L203.403 29.2041C203.249 29.3707 203.03 29.5342 202.746 29.6946C202.468 29.8488 202.101 29.9753 201.645 30.074C201.188 30.1728 200.611 30.2221 199.914 30.2221C199.075 30.2221 198.328 30.0648 197.674 29.7501C197.02 29.4355 196.505 28.9727 196.129 28.3619C195.752 27.7511 195.564 27.0045 195.564 26.1222C195.564 25.3818 195.725 24.7155 196.045 24.1232C196.372 23.5247 196.844 23.0527 197.461 22.7072C198.078 22.3555 198.822 22.1797 199.692 22.1797C200.519 22.1797 201.234 22.3308 201.839 22.6331C202.45 22.9355 202.919 23.3859 203.246 23.9843C203.579 24.5767 203.745 25.317 203.745 26.2055C203.745 26.2549 203.742 26.3536 203.736 26.5017C203.736 26.6497 203.73 26.7485 203.718 26.7978H198.22ZM201.098 25.3263C201.092 25.1289 201.04 24.9345 200.941 24.7432C200.842 24.5458 200.694 24.3854 200.497 24.262C200.299 24.1324 200.047 24.0676 199.738 24.0676C199.43 24.0676 199.167 24.1293 198.951 24.2527C198.742 24.37 198.581 24.5242 198.47 24.7155C198.359 24.9067 198.297 25.1104 198.285 25.3263H201.098ZM213.383 19.9122C212.976 19.9122 212.615 20.0109 212.3 20.2084C211.992 20.3996 211.73 20.6248 211.514 20.884C211.304 21.1431 211.144 21.3807 211.033 21.5966C210.922 21.8064 210.86 21.9298 210.847 21.9668L208.478 20.884C208.491 20.8038 208.549 20.6433 208.654 20.4027C208.759 20.1559 208.926 19.8721 209.154 19.5513C209.382 19.2304 209.681 18.9189 210.052 18.6165C210.428 18.3142 210.891 18.0643 211.44 17.8669C211.989 17.6633 212.637 17.5615 213.383 17.5615C214.247 17.5615 214.963 17.6849 215.53 17.9317C216.104 18.1785 216.555 18.5024 216.882 18.9034C217.215 19.2983 217.452 19.7271 217.594 20.1899C217.736 20.6526 217.807 21.0968 217.807 21.5226C217.807 22.0532 217.699 22.5684 217.483 23.0681C217.273 23.5617 216.999 24.0306 216.66 24.4749C216.32 24.9129 215.956 25.317 215.567 25.6872C215.179 26.0513 214.805 26.3721 214.448 26.6497C214.096 26.9212 213.797 27.1372 213.55 27.2976C213.303 27.458 213.155 27.5567 213.106 27.5937H217.705V30H208.941V27.8066C209.034 27.7387 209.243 27.5876 209.57 27.3531C209.897 27.1187 210.289 26.8256 210.746 26.4739C211.208 26.1222 211.687 25.7366 212.18 25.317C212.68 24.8913 213.143 24.4533 213.568 24.0029C214 23.5525 214.352 23.1113 214.623 22.6794C214.895 22.2475 215.031 21.8496 215.031 21.4855C215.031 20.9117 214.886 20.5076 214.596 20.2732C214.312 20.0325 213.908 19.9122 213.383 19.9122ZM218.591 23.9011C218.591 22.8398 218.723 21.9143 218.989 21.1246C219.26 20.3287 219.627 19.6685 220.09 19.1441C220.559 18.6135 221.09 18.2186 221.682 17.9594C222.28 17.6941 222.907 17.5615 223.561 17.5615C224.215 17.5615 224.838 17.6941 225.43 17.9594C226.029 18.2186 226.559 18.6135 227.022 19.1441C227.485 19.6685 227.849 20.3287 228.114 21.1246C228.379 21.9143 228.512 22.8398 228.512 23.9011C228.512 25.0301 228.379 25.9957 228.114 26.7978C227.849 27.5999 227.485 28.2539 227.022 28.7599C226.559 29.2596 226.029 29.6298 225.43 29.8704C224.838 30.1049 224.215 30.2221 223.561 30.2221C222.907 30.2221 222.28 30.1049 221.682 29.8704C221.09 29.6298 220.559 29.2596 220.09 28.7599C219.627 28.2539 219.26 27.5999 218.989 26.7978C218.723 25.9957 218.591 25.0301 218.591 23.9011ZM221.367 23.9011C221.367 24.7834 221.457 25.5114 221.636 26.0852C221.815 26.659 222.067 27.0878 222.394 27.3716C222.721 27.6493 223.11 27.7881 223.561 27.7881C224.011 27.7881 224.397 27.6493 224.717 27.3716C225.044 27.0878 225.294 26.659 225.467 26.0852C225.646 25.5052 225.735 24.7772 225.735 23.9011C225.735 23.0743 225.646 22.3709 225.467 21.791C225.294 21.211 225.044 20.7667 224.717 20.4583C224.397 20.1498 224.011 19.9955 223.561 19.9955C223.11 19.9955 222.721 20.1498 222.394 20.4583C222.067 20.7667 221.815 21.211 221.636 21.791C221.457 22.3709 221.367 23.0743 221.367 23.9011ZM229.008 23.9011C229.008 22.8398 229.14 21.9143 229.405 21.1246C229.677 20.3287 230.044 19.6685 230.507 19.1441C230.976 18.6135 231.506 18.2186 232.099 17.9594C232.697 17.6941 233.323 17.5615 233.977 17.5615C234.631 17.5615 235.255 17.6941 235.847 17.9594C236.445 18.2186 236.976 18.6135 237.439 19.1441C237.901 19.6685 238.265 20.3287 238.531 21.1246C238.796 21.9143 238.929 22.8398 238.929 23.9011C238.929 25.0301 238.796 25.9957 238.531 26.7978C238.265 27.5999 237.901 28.2539 237.439 28.7599C236.976 29.2596 236.445 29.6298 235.847 29.8704C235.255 30.1049 234.631 30.2221 233.977 30.2221C233.323 30.2221 232.697 30.1049 232.099 29.8704C231.506 29.6298 230.976 29.2596 230.507 28.7599C230.044 28.2539 229.677 27.5999 229.405 26.7978C229.14 25.9957 229.008 25.0301 229.008 23.9011ZM231.784 23.9011C231.784 24.7834 231.873 25.5114 232.052 26.0852C232.231 26.659 232.484 27.0878 232.811 27.3716C233.138 27.6493 233.527 27.7881 233.977 27.7881C234.428 27.7881 234.813 27.6493 235.134 27.3716C235.461 27.0878 235.711 26.659 235.884 26.0852C236.063 25.5052 236.152 24.7772 236.152 23.9011C236.152 23.0743 236.063 22.3709 235.884 21.791C235.711 21.211 235.461 20.7667 235.134 20.4583C234.813 20.1498 234.428 19.9955 233.977 19.9955C233.527 19.9955 233.138 20.1498 232.811 20.4583C232.484 20.7667 232.231 21.211 232.052 21.791C231.873 22.3709 231.784 23.0743 231.784 23.9011ZM244.764 21.865C245.406 21.865 246.02 22.0285 246.606 22.3555C247.198 22.6825 247.683 23.1514 248.059 23.7622C248.435 24.3669 248.624 25.0918 248.624 25.9371C248.624 26.7701 248.42 27.5074 248.013 28.149C247.606 28.7907 247.056 29.2966 246.365 29.6668C245.681 30.037 244.922 30.2221 244.089 30.2221C243.243 30.2221 242.475 30.0494 241.784 29.7038C241.099 29.3522 240.55 28.8493 240.137 28.1953C239.73 27.5351 239.526 26.7485 239.526 25.8353C239.526 24.8235 239.69 23.9751 240.017 23.2902C240.35 22.6054 240.723 22.01 241.136 21.504L244.172 17.7836H247.411L243.644 22.1889C243.719 22.1087 243.848 22.0347 244.033 21.9668C244.218 21.8989 244.462 21.865 244.764 21.865ZM244.079 27.9639C244.437 27.9639 244.761 27.8776 245.051 27.7048C245.347 27.532 245.582 27.2976 245.755 27.0014C245.934 26.6991 246.023 26.369 246.023 26.0112C246.023 25.6533 245.934 25.3294 245.755 25.0394C245.582 24.7432 245.347 24.5088 245.051 24.336C244.761 24.1633 244.437 24.0769 244.079 24.0769C243.722 24.0769 243.395 24.1633 243.098 24.336C242.802 24.5088 242.565 24.7432 242.386 25.0394C242.213 25.3294 242.127 25.6533 242.127 26.0112C242.127 26.369 242.213 26.6991 242.386 27.0014C242.565 27.2976 242.802 27.532 243.098 27.7048C243.395 27.8776 243.722 27.9639 244.079 27.9639ZM251.548 30.2221C251.092 30.2221 250.697 30.0586 250.363 29.7316C250.036 29.3984 249.873 29.0036 249.873 28.547C249.873 28.0781 250.036 27.6801 250.363 27.3531C250.697 27.0199 251.092 26.8534 251.548 26.8534C252.017 26.8534 252.415 27.0199 252.742 27.3531C253.069 27.6801 253.232 28.0781 253.232 28.547C253.232 29.0036 253.069 29.3984 252.742 29.7316C252.415 30.0586 252.017 30.2221 251.548 30.2221Z" fill="white"/>
</svg>
