<svg width="227" height="87" viewBox="0 0 227 87" fill="none" xmlns="http://www.w3.org/2000/svg">
<path d="M34.8645 71H20.6303L0.837135 15.4108H15.0292L27.7474 54.9549L40.4655 15.4108H54.6576L34.8645 71ZM56.2836 15.4108H68.8754V71H56.2836V15.4108ZM93.807 14.4C97.2602 14.4 100.278 14.7791 102.861 15.5371C105.444 16.2951 107.522 17.0953 109.094 17.9375C110.666 18.7798 111.621 19.3413 111.958 19.6221L105.893 29.7713C105.444 29.4344 104.672 28.9431 103.577 28.2974C102.51 27.6516 101.233 27.0761 99.7449 26.5707C98.285 26.0654 96.7549 25.8127 95.1546 25.8127C92.9928 25.8127 91.2381 26.2057 89.8905 26.9919C88.5709 27.7499 87.9111 28.8869 87.9111 30.403C87.9111 31.4418 88.2621 32.3823 88.964 33.2246C89.6939 34.0388 90.7889 34.8249 92.2488 35.5829C93.7368 36.3129 95.6178 37.113 97.8919 37.9834C99.9695 38.7414 101.921 39.6398 103.746 40.6786C105.571 41.7174 107.171 42.9527 108.547 44.3845C109.95 45.7883 111.059 47.4167 111.873 49.2697C112.688 51.1226 113.095 53.2283 113.095 55.5866C113.095 58.3942 112.519 60.8367 111.368 62.9143C110.217 64.9638 108.645 66.6624 106.651 68.01C104.686 69.3576 102.44 70.3543 99.9134 71C97.4147 71.6738 94.8177 72.0107 92.1224 72.0107C88.3042 72.0107 84.879 71.5755 81.8469 70.7052C78.8428 69.8349 76.4143 68.8943 74.5613 67.8836C72.7083 66.8729 71.5994 66.1991 71.2344 65.8622L77.5092 55.2918C77.8461 55.5445 78.4919 55.9516 79.4464 56.5131C80.4291 57.0746 81.6223 57.6642 83.026 58.2819C84.4298 58.8714 85.9178 59.3768 87.49 59.7979C89.0903 60.2191 90.6625 60.4296 92.2067 60.4296C94.7896 60.4296 96.7268 59.9383 98.0183 58.9557C99.3097 57.945 99.9555 56.6254 99.9555 54.997C99.9555 53.7898 99.5484 52.7089 98.7342 51.7543C97.92 50.7998 96.6987 49.9014 95.0704 49.0591C93.442 48.1888 91.4065 47.2763 88.964 46.3217C86.5214 45.3391 84.2333 44.1459 82.0995 42.7421C79.9939 41.3384 78.2813 39.5837 76.9617 37.478C75.6422 35.3724 74.9824 32.7613 74.9824 29.645C74.9824 26.5286 75.8528 23.8334 77.5934 21.5593C79.3622 19.2571 81.6784 17.4883 84.5421 16.253C87.4339 15.0177 90.5222 14.4 93.807 14.4ZM133.652 15.4108H146.159L168.1 71H154.666L150.623 59.84H129.23L125.145 71H111.669L133.652 15.4108ZM133.441 48.8064H146.454L140.011 30.5715H139.885L133.441 48.8064ZM124.345 11.6627C124.598 10.0063 125.103 8.29366 125.861 6.52491C126.647 4.75616 127.672 3.25413 128.935 2.01881C130.199 0.783495 131.729 0.165838 133.526 0.165838C135.294 0.165838 136.852 0.432553 138.2 0.965983C139.548 1.47134 140.797 1.99074 141.948 2.52417C143.127 3.02953 144.349 3.2822 145.612 3.2822C146.426 3.2822 147.086 2.93126 147.591 2.22937C148.125 1.49942 148.476 0.811571 148.644 0.165838H155.466C155.186 1.79421 154.666 3.50681 153.908 5.30363C153.15 7.07238 152.139 8.57441 150.876 9.80973C149.613 11.045 148.083 11.6627 146.286 11.6627C144.517 11.6627 142.959 11.41 141.611 10.9047C140.264 10.3712 139 9.85184 137.821 9.34648C136.642 8.81305 135.421 8.54634 134.157 8.54634C133.371 8.54634 132.711 8.89728 132.178 9.59916C131.673 10.301 131.322 10.9889 131.125 11.6627H124.345ZM178.821 43.1633C178.821 46.3358 179.466 49.2135 180.758 51.7964C182.077 54.3513 183.888 56.3868 186.191 57.9028C188.521 59.4189 191.216 60.1769 194.276 60.1769C197.336 60.1769 200.018 59.4189 202.32 57.9028C204.65 56.3868 206.461 54.3513 207.752 51.7964C209.072 49.2135 209.732 46.3358 209.732 43.1633C209.732 39.9908 209.072 37.1271 207.752 34.5722C206.461 32.0173 204.65 29.9819 202.32 28.4658C200.018 26.9217 197.336 26.1496 194.276 26.1496C191.216 26.1496 188.521 26.9217 186.191 28.4658C183.888 29.9819 182.077 32.0173 180.758 34.5722C179.466 37.1271 178.821 39.9908 178.821 43.1633ZM165.724 43.1633C165.724 39.1204 166.439 35.3583 167.871 31.877C169.303 28.3675 171.311 25.3073 173.894 22.6963C176.476 20.0853 179.509 18.0498 182.99 16.5899C186.471 15.13 190.233 14.4 194.276 14.4C198.375 14.4 202.151 15.13 205.605 16.5899C209.086 18.0498 212.104 20.0853 214.659 22.6963C217.242 25.3073 219.235 28.3675 220.639 31.877C222.071 35.3583 222.787 39.1204 222.787 43.1633C222.787 47.2342 222.099 51.0244 220.723 54.5338C219.348 58.0151 217.382 61.0754 214.827 63.7144C212.273 66.3255 209.254 68.3609 205.773 69.8208C202.292 71.2808 198.459 72.0107 194.276 72.0107C190.009 72.0107 186.12 71.2808 182.611 69.8208C179.13 68.3609 176.125 66.3255 173.599 63.7144C171.072 61.0754 169.121 58.0151 167.745 54.5338C166.397 51.0244 165.724 47.2342 165.724 43.1633Z" fill="url(#paint0_linear_1_18)"/>
<path d="M44.3685 80.6081C43.2549 80.6081 42.2863 80.3367 41.4627 79.7939C40.6392 79.2417 39.9981 78.5071 39.5396 77.59C39.0904 76.6635 38.8658 75.6387 38.8658 74.5157C38.8658 73.3927 39.0904 72.3726 39.5396 71.4555C39.9981 70.529 40.6392 69.7897 41.4627 69.2376C42.2863 68.6854 43.2549 68.4093 44.3685 68.4093C45.1078 68.4093 45.7629 68.5263 46.3338 68.7603C46.9047 68.9849 47.3679 69.2563 47.7235 69.5745C48.0792 69.8833 48.2944 70.1687 48.3693 70.4308V60.9553H52.6367V80.2712H48.4114V78.4042C48.2336 78.7504 47.9435 79.0967 47.541 79.443C47.1386 79.7799 46.666 80.0559 46.1232 80.2712C45.5804 80.4958 44.9955 80.6081 44.3685 80.6081ZM45.674 77.2531C46.1887 77.2531 46.6473 77.1361 47.0497 76.9021C47.4615 76.6682 47.7844 76.3453 48.0183 75.9335C48.2523 75.5124 48.3693 75.0398 48.3693 74.5157C48.3693 73.9917 48.2523 73.5237 48.0183 73.112C47.7844 72.6908 47.4615 72.3633 47.0497 72.1293C46.6473 71.886 46.1887 71.7643 45.674 71.7643C45.178 71.7643 44.7288 71.886 44.3264 72.1293C43.9334 72.3633 43.6198 72.6908 43.3859 73.112C43.1613 73.5237 43.049 73.9917 43.049 74.5157C43.049 75.0398 43.1613 75.5124 43.3859 75.9335C43.6198 76.3453 43.9334 76.6682 44.3264 76.9021C44.7288 77.1361 45.178 77.2531 45.674 77.2531ZM57.1033 75.4141C57.1314 75.8259 57.2624 76.1909 57.4964 76.5091C57.7304 76.8273 58.0532 77.0799 58.465 77.2671C58.8861 77.4449 59.3821 77.5338 59.953 77.5338C60.4958 77.5338 60.9824 77.4777 61.4129 77.3654C61.8528 77.2531 62.2318 77.1127 62.55 76.9442C62.8775 76.7758 63.1302 76.6027 63.308 76.4249L64.9644 79.0639C64.7305 79.3166 64.3983 79.5646 63.9678 79.8079C63.5466 80.0419 62.9898 80.2337 62.2973 80.3835C61.6048 80.5332 60.7297 80.6081 59.6722 80.6081C58.3995 80.6081 57.2671 80.3694 56.2751 79.8922C55.2831 79.4149 54.5017 78.713 53.9308 77.7865C53.36 76.86 53.0745 75.7276 53.0745 74.3894C53.0745 73.2664 53.3178 72.2557 53.8045 71.3572C54.3005 70.4495 55.0164 69.7336 55.9522 69.2095C56.8881 68.6761 58.0158 68.4093 59.3353 68.4093C60.5894 68.4093 61.6749 68.6386 62.5921 69.0972C63.5186 69.5557 64.2298 70.2389 64.7258 71.1467C65.2312 72.0451 65.4838 73.1681 65.4838 74.5157C65.4838 74.5906 65.4792 74.7403 65.4698 74.9649C65.4698 75.1895 65.4604 75.3393 65.4417 75.4141H57.1033ZM61.4691 73.1821C61.4597 72.8827 61.3802 72.5879 61.2304 72.2978C61.0807 71.9983 60.8561 71.755 60.5566 71.5678C60.2571 71.3713 59.8734 71.273 59.4055 71.273C58.9376 71.273 58.5399 71.3666 58.2123 71.5538C57.8941 71.7316 57.6508 71.9655 57.4824 72.2557C57.3139 72.5458 57.2203 72.8546 57.2016 73.1821H61.4691ZM81.6607 86.1109V78.4042C81.5859 78.6007 81.3847 78.8768 81.0571 79.2324C80.7296 79.5787 80.2804 79.8968 79.7095 80.187C79.148 80.4677 78.4601 80.6081 77.646 80.6081C76.5323 80.6081 75.559 80.3367 74.7261 79.7939C73.8932 79.2417 73.2475 78.5071 72.7889 77.59C72.3304 76.6635 72.1011 75.6387 72.1011 74.5157C72.1011 73.3927 72.3163 72.3726 72.7468 71.4555C73.1773 70.529 73.795 69.7897 74.5998 69.2376C75.4046 68.6854 76.3638 68.4093 77.4775 68.4093C78.2168 68.4093 78.8719 68.5263 79.4428 68.7603C80.023 68.9849 80.4956 69.2563 80.8606 69.5745C81.2349 69.8833 81.4876 70.1687 81.6186 70.4308V68.7462H85.872V86.1109H81.6607ZM78.9093 77.2531C79.4334 77.2531 79.8967 77.1361 80.2991 76.9021C80.7015 76.6682 81.0197 76.3453 81.2536 75.9335C81.497 75.5124 81.6186 75.0398 81.6186 74.5157C81.6186 73.9917 81.497 73.5237 81.2536 73.112C81.0197 72.6908 80.7015 72.3633 80.2991 72.1293C79.8967 71.886 79.4334 71.7643 78.9093 71.7643C78.4227 71.7643 77.9782 71.886 77.5758 72.1293C77.1827 72.3633 76.8692 72.6908 76.6352 73.112C76.4013 73.5237 76.2843 73.9917 76.2843 74.5157C76.2843 75.0398 76.4013 75.5124 76.6352 75.9335C76.8692 76.3453 77.1827 76.6682 77.5758 76.9021C77.9782 77.1361 78.4227 77.2531 78.9093 77.2531ZM90.8528 74.0806C90.8528 74.9977 91.0259 75.7323 91.3722 76.2845C91.7184 76.8273 92.2987 77.0987 93.1129 77.0987C93.9458 77.0987 94.5307 76.8273 94.8676 76.2845C95.2138 75.7323 95.387 74.9977 95.387 74.0806V68.7462H99.5983V74.5298C99.5983 75.7651 99.3409 76.8413 98.8262 77.7584C98.3208 78.6662 97.5862 79.3681 96.6223 79.8641C95.6584 80.3601 94.4885 80.6081 93.1129 80.6081C91.7465 80.6081 90.5814 80.3601 89.6175 79.8641C88.6535 79.3681 87.9189 78.6662 87.4136 77.7584C86.9082 76.8413 86.6555 75.7651 86.6555 74.5298V68.7462H90.8528V74.0806ZM109.729 80.2712V78.4042C109.645 78.5913 109.43 78.8627 109.084 79.2184C108.747 79.574 108.297 79.8968 107.736 80.187C107.174 80.4677 106.519 80.6081 105.771 80.6081C104.648 80.6081 103.665 80.3367 102.823 79.7939C101.981 79.2417 101.325 78.5071 100.857 77.59C100.39 76.6635 100.156 75.6387 100.156 74.5157C100.156 73.3927 100.39 72.3726 100.857 71.4555C101.325 70.529 101.981 69.7897 102.823 69.2376C103.665 68.6854 104.648 68.4093 105.771 68.4093C106.491 68.4093 107.123 68.5263 107.666 68.7603C108.209 68.9849 108.648 69.2563 108.985 69.5745C109.322 69.8833 109.556 70.1687 109.687 70.4308V68.7462H113.927V80.2712H109.729ZM104.339 74.5157C104.339 75.0398 104.46 75.5124 104.704 75.9335C104.947 76.3453 105.27 76.6682 105.672 76.9021C106.084 77.1361 106.538 77.2531 107.034 77.2531C107.549 77.2531 108.003 77.1361 108.396 76.9021C108.789 76.6682 109.098 76.3453 109.322 75.9335C109.556 75.5124 109.673 75.0398 109.673 74.5157C109.673 73.9917 109.556 73.5237 109.322 73.112C109.098 72.6908 108.789 72.3633 108.396 72.1293C108.003 71.886 107.549 71.7643 107.034 71.7643C106.538 71.7643 106.084 71.886 105.672 72.1293C105.27 72.3633 104.947 72.6908 104.704 73.112C104.46 73.5237 104.339 73.9917 104.339 74.5157ZM119.498 80.2712H115.217V60.9553H119.498V80.2712ZM120.986 80.2712V68.7462H125.254V80.2712H120.986ZM123.176 66.3739C122.502 66.3739 121.931 66.1399 121.463 65.672C120.996 65.1947 120.762 64.6285 120.762 63.9734C120.762 63.3183 120.996 62.7521 121.463 62.2749C121.941 61.7882 122.512 61.5449 123.176 61.5449C123.616 61.5449 124.018 61.6572 124.383 61.8818C124.748 62.0971 125.043 62.3872 125.268 62.7521C125.492 63.1171 125.605 63.5242 125.605 63.9734C125.605 64.6285 125.366 65.1947 124.889 65.672C124.411 66.1399 123.841 66.3739 123.176 66.3739ZM131.731 80.6081C130.618 80.6081 129.649 80.3367 128.825 79.7939C128.002 79.2417 127.361 78.5071 126.902 77.59C126.453 76.6635 126.228 75.6387 126.228 74.5157C126.228 73.3927 126.453 72.3726 126.902 71.4555C127.361 70.529 128.002 69.7897 128.825 69.2376C129.649 68.6854 130.618 68.4093 131.731 68.4093C132.47 68.4093 133.126 68.5263 133.696 68.7603C134.267 68.9849 134.731 69.2563 135.086 69.5745C135.442 69.8833 135.657 70.1687 135.732 70.4308V60.9553H139.999V80.2712H135.774V78.4042C135.596 78.7504 135.306 79.0967 134.904 79.443C134.501 79.7799 134.029 80.0559 133.486 80.2712C132.943 80.4958 132.358 80.6081 131.731 80.6081ZM133.037 77.2531C133.551 77.2531 134.01 77.1361 134.412 76.9021C134.824 76.6682 135.147 76.3453 135.381 75.9335C135.615 75.5124 135.732 75.0398 135.732 74.5157C135.732 73.9917 135.615 73.5237 135.381 73.112C135.147 72.6908 134.824 72.3633 134.412 72.1293C134.01 71.886 133.551 71.7643 133.037 71.7643C132.541 71.7643 132.091 71.886 131.689 72.1293C131.296 72.3633 130.983 72.6908 130.749 73.112C130.524 73.5237 130.412 73.9917 130.412 74.5157C130.412 75.0398 130.524 75.5124 130.749 75.9335C130.983 76.3453 131.296 76.6682 131.689 76.9021C132.091 77.1361 132.541 77.2531 133.037 77.2531ZM150.011 80.2712V78.4042C149.927 78.5913 149.711 78.8627 149.365 79.2184C149.028 79.574 148.579 79.8968 148.018 80.187C147.456 80.4677 146.801 80.6081 146.052 80.6081C144.929 80.6081 143.947 80.3367 143.104 79.7939C142.262 79.2417 141.607 78.5071 141.139 77.59C140.671 76.6635 140.437 75.6387 140.437 74.5157C140.437 73.3927 140.671 72.3726 141.139 71.4555C141.607 70.529 142.262 69.7897 143.104 69.2376C143.947 68.6854 144.929 68.4093 146.052 68.4093C146.773 68.4093 147.405 68.5263 147.947 68.7603C148.49 68.9849 148.93 69.2563 149.267 69.5745C149.604 69.8833 149.838 70.1687 149.969 70.4308V68.7462H154.208V80.2712H150.011ZM144.62 74.5157C144.62 75.0398 144.742 75.5124 144.985 75.9335C145.229 76.3453 145.552 76.6682 145.954 76.9021C146.366 77.1361 146.82 77.2531 147.316 77.2531C147.83 77.2531 148.284 77.1361 148.677 76.9021C149.07 76.6682 149.379 76.3453 149.604 75.9335C149.838 75.5124 149.955 75.0398 149.955 74.5157C149.955 73.9917 149.838 73.5237 149.604 73.112C149.379 72.6908 149.07 72.3633 148.677 72.1293C148.284 71.886 147.83 71.7643 147.316 71.7643C146.82 71.7643 146.366 71.886 145.954 72.1293C145.552 72.3633 145.229 72.6908 144.985 73.112C144.742 73.5237 144.62 73.9917 144.62 74.5157ZM160.454 80.6081C159.34 80.6081 158.371 80.3367 157.548 79.7939C156.724 79.2417 156.083 78.5071 155.625 77.59C155.175 76.6635 154.951 75.6387 154.951 74.5157C154.951 73.3927 155.175 72.3726 155.625 71.4555C156.083 70.529 156.724 69.7897 157.548 69.2376C158.371 68.6854 159.34 68.4093 160.454 68.4093C161.193 68.4093 161.848 68.5263 162.419 68.7603C162.99 68.9849 163.453 69.2563 163.809 69.5745C164.164 69.8833 164.379 70.1687 164.454 70.4308V60.9553H168.722V80.2712H164.496V78.4042C164.319 78.7504 164.029 79.0967 163.626 79.443C163.224 79.7799 162.751 80.0559 162.208 80.2712C161.666 80.4958 161.081 80.6081 160.454 80.6081ZM161.759 77.2531C162.274 77.2531 162.732 77.1361 163.135 76.9021C163.547 76.6682 163.869 76.3453 164.103 75.9335C164.337 75.5124 164.454 75.0398 164.454 74.5157C164.454 73.9917 164.337 73.5237 164.103 73.112C163.869 72.6908 163.547 72.3633 163.135 72.1293C162.732 71.886 162.274 71.7643 161.759 71.7643C161.263 71.7643 160.814 71.886 160.411 72.1293C160.018 72.3633 159.705 72.6908 159.471 73.112C159.246 73.5237 159.134 73.9917 159.134 74.5157C159.134 75.0398 159.246 75.5124 159.471 75.9335C159.705 76.3453 160.018 76.6682 160.411 76.9021C160.814 77.1361 161.263 77.2531 161.759 77.2531ZM173.188 75.4141C173.216 75.8259 173.348 76.1909 173.581 76.5091C173.815 76.8273 174.138 77.0799 174.55 77.2671C174.971 77.4449 175.467 77.5338 176.038 77.5338C176.581 77.5338 177.068 77.4777 177.498 77.3654C177.938 77.2531 178.317 77.1127 178.635 76.9442C178.963 76.7758 179.215 76.6027 179.393 76.4249L181.05 79.0639C180.816 79.3166 180.483 79.5646 180.053 79.8079C179.632 80.0419 179.075 80.2337 178.382 80.3835C177.69 80.5332 176.815 80.6081 175.757 80.6081C174.485 80.6081 173.352 80.3694 172.36 79.8922C171.368 79.4149 170.587 78.713 170.016 77.7865C169.445 76.86 169.16 75.7276 169.16 74.3894C169.16 73.2664 169.403 72.2557 169.89 71.3572C170.386 70.4495 171.101 69.7336 172.037 69.2095C172.973 68.6761 174.101 68.4093 175.42 68.4093C176.674 68.4093 177.76 68.6386 178.677 69.0972C179.604 69.5557 180.315 70.2389 180.811 71.1467C181.316 72.0451 181.569 73.1681 181.569 74.5157C181.569 74.5906 181.564 74.7403 181.555 74.9649C181.555 75.1895 181.546 75.3393 181.527 75.4141H173.188ZM177.554 73.1821C177.545 72.8827 177.465 72.5879 177.316 72.2978C177.166 71.9983 176.941 71.755 176.642 71.5678C176.342 71.3713 175.959 71.273 175.491 71.273C175.023 71.273 174.625 71.3666 174.297 71.5538C173.979 71.7316 173.736 71.9655 173.567 72.2557C173.399 72.5458 173.305 72.8546 173.287 73.1821H177.554ZM183.816 74.2209L182.946 60.9553H187.55L186.68 74.2209H183.816ZM185.234 80.6081C184.775 80.6081 184.354 80.4958 183.971 80.2712C183.587 80.0372 183.278 79.7284 183.044 79.3447C182.81 78.961 182.693 78.5352 182.693 78.0673C182.693 77.356 182.941 76.7477 183.437 76.2424C183.943 75.737 184.542 75.4843 185.234 75.4843C185.955 75.4843 186.563 75.737 187.059 76.2424C187.555 76.7477 187.803 77.356 187.803 78.0673C187.803 78.7598 187.555 79.3587 187.059 79.8641C186.563 80.3601 185.955 80.6081 185.234 80.6081Z" fill="white"/>
<defs>
<linearGradient id="paint0_linear_1_18" x1="77.8701" y1="30.68" x2="79.5851" y2="84.9978" gradientUnits="userSpaceOnUse">
<stop stop-color="#6CB8FF"/>
<stop offset="1" stop-color="#002770"/>
</linearGradient>
</defs>
</svg>
